<svg width="22" height="22" viewBox="0 0 22 22" fill="none" xmlns="http://www.w3.org/2000/svg">
<g clip-path="url(#clip0_1_4746)">
<path d="M10.6474 21.21C16.3777 21.21 21.023 16.5647 21.023 10.8344C21.023 5.10407 16.3777 0.45874 10.6474 0.45874C4.91706 0.45874 0.271729 5.10407 0.271729 10.8344C0.271729 16.5647 4.91706 21.21 10.6474 21.21Z" fill="#988430"/>
<path d="M10.6451 20.8778C16.1918 20.8778 20.6884 16.3813 20.6884 10.8345C20.6884 5.28779 16.1918 0.79126 10.6451 0.79126C5.09834 0.79126 0.601807 5.28779 0.601807 10.8345C0.601807 16.3813 5.09834 20.8778 10.6451 20.8778Z" fill="#7A6A2A"/>
<path d="M10.6464 20.666C16.0763 20.666 20.478 16.2642 20.478 10.8344C20.478 5.40448 16.0763 1.00269 10.6464 1.00269C5.21649 1.00269 0.814697 5.40448 0.814697 10.8344C0.814697 16.2642 5.21649 20.666 10.6464 20.666Z" fill="#BA9F33"/>
<path fill-rule="evenodd" clip-rule="evenodd" d="M4.80826 9.72637C4.74949 9.67269 4.6874 9.61891 4.6303 9.56523C4.57319 9.51155 4.51453 9.45777 4.45576 9.40409L4.28112 9.23808C4.25257 9.20952 4.22235 9.1844 4.1938 9.15574C4.16525 9.13061 4.13171 9.10206 4.10316 9.07683C3.87141 8.85692 3.63833 8.63701 3.40979 8.41699C3.64652 8.63358 3.87827 8.84862 4.115 9.06842L4.19723 9.15076C4.22578 9.1792 4.256 9.20443 4.28455 9.23299L4.45908 9.39413C4.51785 9.4478 4.57496 9.50159 4.63373 9.56014C4.69249 9.61868 4.7496 9.67258 4.80837 9.72615L4.80826 9.72637ZM1.73253 9.69317C1.73253 9.69317 2.57531 9.78038 2.98668 9.83915C3.36773 9.89293 4.5598 10.0759 4.5598 10.0759L1.73253 9.69317ZM1.73253 9.69317C1.96926 9.71331 2.20599 9.73843 2.44272 9.76367C2.56358 9.7754 2.67945 9.78879 2.79533 9.80052L2.97318 9.82077C3.03195 9.82907 3.08906 9.83749 3.14782 9.8459L3.85304 9.95834L4.20553 10.0171C4.32141 10.0373 4.43728 10.0592 4.55814 10.0793C4.44226 10.0676 4.32141 10.0508 4.20553 10.0339L3.85304 9.98357L3.14782 9.87954C3.08906 9.87113 3.03195 9.85929 2.97318 9.85099L2.79522 9.83051C2.67934 9.81878 2.55849 9.80196 2.44261 9.78846C2.20588 9.76001 1.96915 9.72969 1.73242 9.69284L1.73253 9.69317ZM4.47591 10.2955C4.47591 10.2955 3.57602 10.5239 3.27211 10.6112C2.97329 10.6934 2.06832 10.9688 2.06832 10.9688L4.4758 10.2956L4.47591 10.2955Z" fill="#CFB66C"/>
<path fill-rule="evenodd" clip-rule="evenodd" d="M4.47519 10.2954C4.27543 10.3542 4.07677 10.4113 3.87412 10.4651L3.27306 10.6262C3.07329 10.685 2.87463 10.7421 2.67542 10.8009L2.3766 10.8831C2.27755 10.9116 2.17684 10.9368 2.07446 10.9654C2.1734 10.9322 2.27423 10.8982 2.37328 10.8697L2.6721 10.7741C2.87187 10.7119 3.07052 10.6531 3.26974 10.591C3.47282 10.5407 3.6727 10.4869 3.87578 10.4382C4.0688 10.3895 4.27199 10.3409 4.47519 10.2955V10.2954ZM2.19366 11.5228C2.2926 11.4858 3.43431 10.9537 3.69959 10.8294C3.8324 10.7672 4.21843 10.6302 4.21843 10.6302L2.19366 11.5228Z" fill="#CFB66C"/>
<path fill-rule="evenodd" clip-rule="evenodd" d="M2.19371 11.5228C2.28092 11.4896 2.36327 11.449 2.44716 11.4104L2.69562 11.2945L3.19431 11.0545C3.36032 10.9756 3.52168 10.8885 3.6929 10.8143C3.78022 10.7774 3.86754 10.7472 3.95475 10.7187L4.08756 10.6767C4.13282 10.665 4.17488 10.6515 4.22037 10.6398C4.05436 10.7187 3.8796 10.7859 3.71337 10.863C3.54736 10.9453 3.37759 11.0125 3.20627 11.0863L2.69927 11.3096C2.52905 11.3785 2.36304 11.4523 2.1936 11.5228H2.19371ZM2.30439 11.9877C2.30439 11.9877 3.33852 11.3816 3.69445 11.1868C3.88082 11.0828 4.48355 10.7839 4.48355 10.7839L2.30439 11.9877Z" fill="#CFB66C"/>
<path fill-rule="evenodd" clip-rule="evenodd" d="M2.30493 11.9879C2.47946 11.8804 2.65743 11.7713 2.83539 11.6605L3.10101 11.4993C3.19165 11.4456 3.27897 11.3952 3.37138 11.3415C3.46202 11.2878 3.54934 11.2341 3.64165 11.1837C3.68559 11.1566 3.73162 11.133 3.77932 11.1132L3.92032 11.0427C4.1067 10.9521 4.29307 10.8597 4.48951 10.7808C4.31155 10.8933 4.1285 10.989 3.94555 11.088C3.85491 11.1383 3.7625 11.1837 3.67186 11.2341C3.58122 11.2844 3.4939 11.3382 3.40148 11.3869C3.31084 11.4406 3.22352 11.491 3.13122 11.5396L2.85752 11.6891L2.30515 11.9879H2.30493ZM4.47568 10.9167C4.47568 10.9167 3.83267 11.4103 3.62449 11.5681C3.41631 11.7259 2.80352 12.1692 2.80352 12.1692L4.47568 10.9167Z" fill="#CFB66C"/>
<path fill-rule="evenodd" clip-rule="evenodd" d="M8.16717 14.8973L7.83813 14.2745L8.02949 13.4954L9.39442 12.9683L8.8135 11.7764L9.10059 10.5726L9.63957 9.4946L11.3051 9.23275L12.5289 8.06592L15.1716 8.26568L15.6903 11.0913L14.6914 14.6489L14.1223 16.4907L11.8154 16.578L10.7443 15.836L9.49016 15.312L8.16717 14.8973Z" fill="#E2CC85"/>
<path fill-rule="evenodd" clip-rule="evenodd" d="M12.2118 14.8771C12.2118 14.8771 11.8927 15.0232 11.3485 14.9896C11.191 14.7781 10.0881 14.679 10.0881 14.679C10.0881 14.679 9.95037 14.6371 9.70689 14.7378C9.46186 14.8374 9.23011 14.8251 9.01352 14.8788C8.79694 14.9325 8.5819 14.6505 8.41589 14.5917C8.24988 14.5296 8.02975 14.3802 8.02975 14.3802L7.56492 14.3348L6.6315 13.9403L5.14859 12.4629L4.74562 13.0937L4.62134 13.8744L5.06968 14.7995L6.27679 15.8992L8.63059 16.4968L10.0257 16.0858L11.7735 15.347L12.2118 14.877V14.8771Z" fill="#F1D789"/>
<path fill-rule="evenodd" clip-rule="evenodd" d="M3.85066 9.65576L4.14948 8.75089L4.50551 8.16653L5.65209 8.0708L5.30789 9.07483L4.34935 10.7806L4.74722 12.3034L4.04212 12.6559L3.82542 12.3235L3.65089 11.5613L3.63916 10.7051L3.85066 9.65576Z" fill="#F4ECB4"/>
<path fill-rule="evenodd" clip-rule="evenodd" d="M5.1359 14.8151L4.91599 14.5079C4.91599 14.5079 4.85722 14.3618 4.89087 14.2342C4.92407 14.1049 4.91931 14.0965 4.9026 14.0478C4.88589 13.9991 4.74478 13.8313 4.75319 13.6868C4.76149 13.5407 4.74146 13.492 4.84881 13.3763C4.96126 13.2638 4.92772 13.069 4.92772 13.069L5.07381 13.1597L5.10701 13.1093C5.10701 13.1093 5.16069 13.1513 5.16069 13.2168C5.17242 13.1262 5.12373 12.7064 5.23451 12.6107C5.34529 12.5151 5.54174 13.059 5.54174 13.059L5.42088 12.2699L5.11022 11.4607L4.55785 10.722L4.52465 9.90766V9.83716C4.52465 9.83716 4.2711 10.2267 4.2006 10.5344C4.15024 10.7459 4.2711 11.0028 4.24597 11.3067C4.22572 11.6089 4.2006 11.5854 4.27442 11.7051C4.34824 11.8249 4.52797 12.0711 4.45747 12.2491C4.39538 12.4019 4.18378 12.2944 4.18378 12.2944C4.18378 12.2944 4.14183 12.4186 4.08472 12.464C4.06458 12.3902 4.04278 12.3431 4.00249 12.298C3.99906 12.3265 3.99076 12.3652 3.99076 12.3652C3.99076 12.3652 3.9538 12.2493 3.91683 12.1032C3.86659 11.9085 3.8128 11.6516 3.7641 11.514C3.74396 11.5929 3.6936 11.8329 3.6936 11.8329L3.72216 12.2024L3.85984 12.7094L3.99264 13.0414L4.12191 13.4477L4.23424 13.7206L4.32488 13.9288L4.4038 14.3972L4.78484 14.8001L4.98804 14.8908L5.13568 14.8152L5.1359 14.8151Z" fill="#F3E19D"/>
<path fill-rule="evenodd" clip-rule="evenodd" d="M4.04904 8.91709C4.04904 8.91709 3.77535 9.38191 3.69655 9.8505C3.61775 10.3191 3.54714 10.8142 3.59694 11.4522C3.6473 12.0953 3.74303 12.4897 3.82028 12.7718C3.95309 13.2403 4.29706 13.8917 4.29706 13.8917L4.30879 13.8665C4.25098 13.7569 4.20483 13.6416 4.17112 13.5223C4.12574 13.3444 4.10892 13.1329 4.06697 13.0371C4.03001 12.9415 3.96792 12.8592 3.93771 12.7416C3.90915 12.6292 3.9045 12.4512 3.81685 12.3186C3.77989 12.2648 3.73451 12.1238 3.72112 11.9829C3.7043 11.7712 3.72953 11.5345 3.70939 11.3398C3.67242 11.0158 3.6473 10.7959 3.68083 10.6262C3.71437 10.4566 3.88912 9.9749 3.99658 9.59208C4.06708 9.34694 4.02503 9.14042 4.15429 8.92716C4.28356 8.71566 4.36258 8.52929 4.39103 8.40002C4.42423 8.28248 4.0486 8.91709 4.0486 8.91709H4.04904Z" fill="#F2E8B0"/>
<path fill-rule="evenodd" clip-rule="evenodd" d="M5.34673 8.73071C5.34673 8.73071 5.20573 8.77277 5.13855 8.84659C5.07138 8.91709 5.04282 8.97586 4.95218 9.09505C4.86154 9.21425 4.85645 9.31164 4.78252 9.46105C4.7087 9.60714 4.54579 9.82704 4.52564 9.90595C4.5055 9.98486 4.47197 10.3542 4.43002 10.5288C4.39306 10.7035 4.47197 10.9184 4.47197 10.9184L4.56759 10.8981C4.56759 10.8981 4.56759 11.0224 4.66332 11.1064C4.75894 11.1887 4.77577 10.8276 4.77577 10.8276L5.13335 9.62053L5.67222 9.25453L5.73099 8.95903L5.34651 8.73071H5.34673Z" fill="#F5EEC0"/>
<path fill-rule="evenodd" clip-rule="evenodd" d="M5.60888 9.27795C5.60888 9.27795 5.35532 9.29466 5.23115 9.38542C5.18079 9.42227 5.16065 9.45248 5.10697 9.49786C5.00792 9.58009 4.9071 9.65568 4.85851 9.76348C4.80472 9.87083 4.74596 10.0337 4.70567 10.341C4.68885 10.4702 4.68885 10.5894 4.67712 10.6936C4.66029 10.8346 4.63517 10.947 4.64856 11.0256C4.66539 11.1867 4.83162 11.2707 4.84778 11.4537L5.19197 11.2791L5.51602 10.0014L6.20441 9.5698L5.81484 9.1333L5.60843 9.27718L5.60888 9.27795Z" fill="#E6DB9D"/>
<path fill-rule="evenodd" clip-rule="evenodd" d="M3.79332 17.8818C3.79476 17.8692 3.7962 17.8566 3.79764 17.8436C3.84789 17.412 3.85641 17.0849 3.89326 16.88C3.94694 16.5896 3.9839 16.4816 3.97549 16.3729C3.96376 16.1984 3.95037 16.0708 3.96719 15.9364C3.99231 15.7584 4.16696 15.5469 4.16198 15.4009C4.15855 15.285 4.09978 15.2095 4.04942 15.139C3.99907 15.0685 3.95878 15.0097 3.95878 15.0097C3.95878 15.0097 4.30297 14.773 4.29965 13.8193C4.30668 13.8213 4.31345 13.8241 4.3198 13.8277L4.48935 14.3095L4.60522 14.4505L5.05013 15.2799L5.62264 15.8357L6.46874 16.4048L6.99931 16.9822L7.05299 18.5217L6.35962 19.4216L6.24607 19.6273C5.34394 19.1744 4.51668 18.5857 3.79321 17.8817L3.79332 17.8818Z" fill="#E5CB7A"/>
<path fill-rule="evenodd" clip-rule="evenodd" d="M5.91211 19.3548C5.91211 19.3548 5.92384 19.1634 6.08166 19.0391C6.10689 19.0811 6.12361 19.1215 6.11863 19.1516C6.14718 19.1013 6.34694 18.7789 6.7986 18.6949C7.25026 18.6127 7.35939 18.2837 7.35939 18.2837L8.31793 17.4123L9.41426 16.4033L10.7473 15.9349L11.3703 15.782C11.3703 15.782 11.382 15.8274 11.3586 15.9281C11.4743 15.9198 11.7312 15.861 11.9982 15.767C12.1056 15.725 12.2064 15.7082 12.2601 15.7636C12.339 15.8375 12.3508 16.0121 12.3557 16.1161C12.485 16.0876 12.6344 15.9634 12.7542 15.9751C12.9456 15.9953 13.1152 16.2203 13.31 16.2203C13.5668 16.2203 13.6826 16.0625 13.8623 15.9382C13.9698 15.8644 14.1242 15.7722 14.2115 15.7099C14.4197 15.557 16.6224 14.8838 16.6224 14.8838L17.3947 14.9341L17.519 15.7635L17.4526 17.9316C17.4444 17.9395 17.4362 17.9477 17.4279 17.9555L13.9165 19.7895L9.04904 20.5357C7.95872 20.3575 6.90654 19.9956 5.93734 19.4653L5.91244 19.3547L5.91211 19.3548Z" fill="#D8C173"/>
<path fill-rule="evenodd" clip-rule="evenodd" d="M4.08838 18.1579C4.15755 18.0132 4.21975 17.8923 4.2307 17.849C4.23934 17.9362 4.25516 18.1276 4.28704 18.331C4.22012 18.2741 4.1539 18.2164 4.08838 18.1578V18.1579Z" fill="#F1D789"/>
<path fill-rule="evenodd" clip-rule="evenodd" d="M7.6436 20.1982L8.27311 20.0231L8.32678 20.04C8.32678 20.04 8.35534 20.0568 8.35534 20.1138C8.43425 20.0685 8.50143 20.0768 8.55012 20.0467C8.57525 20.1004 8.60037 20.2784 8.71126 20.3002C8.82703 20.3254 8.95131 20.2498 9.07726 20.1542C9.20144 20.0551 9.34288 19.9308 9.4499 19.8805C9.48916 19.9527 9.52394 20.0272 9.55404 20.1037C9.69504 19.9913 9.94018 19.5346 10.2894 19.5429C10.3903 19.3044 10.5589 19.1007 10.7743 18.957C11.0984 18.7371 11.3015 18.7203 11.555 18.7404C11.6557 18.6096 11.7798 18.4986 11.921 18.4131C11.963 18.4299 12.0788 18.5004 12.2233 18.4332C12.3694 18.3661 12.5338 18.1058 12.7504 18.0723C12.8671 18.0562 12.9858 18.0812 13.0862 18.1428C13.0862 18.1428 13.717 17.5165 14.1523 17.3083C14.1355 17.258 14.1019 17.0683 14.6123 16.6485C14.6408 16.6737 14.6207 16.7442 14.6408 16.7481C14.6491 16.7481 14.7736 16.6944 14.9312 16.5735C15.126 16.4275 15.3593 16.2746 15.5003 16.2327C15.7659 16.1538 16.0477 16.3149 16.0477 16.3149C16.0717 16.2981 16.0984 16.2856 16.1266 16.278C16.1937 16.2662 16.2424 16.2578 16.2793 16.2448C16.276 16.3321 16.3247 16.4815 16.2793 16.6108C16.3319 16.6403 16.3876 16.664 16.4453 16.6813C16.4169 16.7433 16.3547 16.9012 16.2507 16.9767C16.3379 17.0187 16.3496 17.0674 16.4739 17.1096C16.4235 17.1801 16.3411 17.301 16.3043 17.3752C16.2674 17.4541 16.1347 17.7815 16.0759 17.9056C16.0138 18.0299 15.9299 18.2582 15.8895 18.3041C15.8491 18.3499 15.7032 18.5441 15.5907 18.6397C15.6903 18.6028 16.0978 18.4786 16.2707 18.4316C16.2192 18.507 15.9584 18.8941 15.7076 19.2663C14.5068 19.986 13.1665 20.4415 11.7759 20.6025C10.3852 20.7635 8.97625 20.6262 7.64282 20.1999L7.6436 20.1982Z" fill="#E0CD81"/>
<path fill-rule="evenodd" clip-rule="evenodd" d="M5.65081 9.23282C5.65081 9.23282 5.50483 9.23282 5.47628 9.25297C5.44772 9.27311 5.62237 9.31516 5.67604 9.33531C5.72972 9.35545 5.84559 9.44775 5.87581 9.52168C5.90436 9.59218 6.9251 10.0034 6.9251 10.0034L7.64703 9.96648L7.89593 9.62261L7.42247 9.20792L7.75449 8.22913L7.31467 8.29962L6.25697 8.93046L5.7264 9.13366L5.65081 9.23282Z" fill="#DFC57C"/>
<path fill-rule="evenodd" clip-rule="evenodd" d="M7.23659 9.55673C7.24702 9.57363 7.26172 9.58748 7.27921 9.5969C7.29669 9.60633 7.31634 9.61098 7.33619 9.61041C7.4856 9.61041 7.62317 9.64737 7.68028 9.72285C7.77601 9.84382 8.0413 10.23 8.0413 10.23L8.6759 10.4583L8.71685 9.71101L8.02348 9.22925L7.23438 9.51966V9.55662H7.23615L7.23659 9.55673Z" fill="#E5CC7C"/>
<path fill-rule="evenodd" clip-rule="evenodd" d="M7.1108 9.83392C7.1108 9.83392 7.22657 9.84234 7.37266 9.78855C7.51875 9.73476 7.7588 9.619 7.86294 9.66437C8.00892 9.72646 7.97871 9.92125 8.13664 10.096C8.23226 10.2035 8.4069 10.2001 8.50595 10.316C8.60501 10.4319 8.94577 10.3781 8.94577 10.3781L9.07504 11.0753L8.55631 11.7403L8.38665 12.5662H7.6852L7.0444 12.312L6.72876 11.5484L6.88658 10.7761L7.1108 9.83392Z" fill="#D2C281"/>
<path fill-rule="evenodd" clip-rule="evenodd" d="M8.46783 9.8671C8.48523 9.87246 8.50331 9.87529 8.52151 9.87551C8.50137 9.89233 8.45931 9.92919 8.47613 10.0249C8.49296 10.1207 8.54663 10.2415 8.50137 10.3153C8.5375 10.3548 8.56445 10.4019 8.58028 10.453C8.60883 10.5353 8.61724 10.6108 8.80351 10.6227C8.77663 10.6392 8.75184 10.6589 8.72969 10.6814C8.72969 10.6814 8.85895 10.7939 8.92447 10.8979C8.99154 10.895 9.1695 10.8397 9.1695 10.8397L9.20647 10.8649L9.28538 10.8317C9.28538 10.8317 9.21156 10.8032 9.26524 10.6236C9.31559 10.4657 9.36097 10.4741 9.36484 10.4624C9.36872 10.4507 9.40181 10.2844 9.40181 10.2173C9.42693 10.1301 9.44707 9.86477 9.44707 9.86477L9.3934 9.27887L9.09126 9.09582L8.84556 8.85864L8.61381 9.29514L8.46119 9.44731L8.44946 9.82504L8.46783 9.8671Z" fill="#E2C270"/>
<path fill-rule="evenodd" clip-rule="evenodd" d="M9.19556 9.37725C9.19556 9.37725 9.24923 9.52998 9.26949 9.64751C9.27662 9.62466 9.28057 9.60094 9.28122 9.57701C9.28122 9.57701 9.32316 9.80876 9.33146 9.9045C9.34829 9.90106 9.36467 9.89608 9.36843 9.9128C9.37219 9.92951 9.41048 10.116 9.40163 10.22C9.47154 10.1047 9.56829 10.0079 9.68363 9.93803C9.7508 9.89597 9.82972 9.85071 9.91206 9.84728C10.0413 9.84396 10.1353 9.92962 10.2898 9.92962C10.6624 9.92962 11 9.65592 11.2484 9.57203C11.4314 9.50983 11.5892 9.46457 11.7 9.36374C11.7538 9.31848 11.8495 9.21777 11.9367 9.06825C12.0526 8.86903 12.1734 8.69561 12.2944 8.67381C12.2397 8.68386 12.184 8.6878 12.1284 8.68554C12.1284 8.68554 12.1654 8.64857 12.228 8.59822C12.2906 8.54786 12.3657 8.48577 12.473 8.48577C12.6645 8.48577 12.7601 8.51422 12.8676 8.51422C12.9751 8.5109 13.0371 8.48577 13.0371 8.48577C13.0371 8.48577 13.1497 8.56468 13.4031 8.56468C13.6567 8.568 13.8262 8.58981 13.9589 8.60165C14.0916 8.61349 14.5364 8.56468 14.664 8.56845C14.7472 8.57165 14.8289 8.59164 14.9042 8.62721L14.4928 7.43194L13.0151 6.14038L12.1354 6.76325L10.7821 8.11645L9.47257 8.60165L9.19888 8.90888V9.37725H9.19556Z" fill="#CCB360"/>
<path fill-rule="evenodd" clip-rule="evenodd" d="M12.1343 8.69185C12.1343 8.69185 12.1713 8.655 12.2333 8.60464C12.2953 8.55429 12.3711 8.49209 12.4784 8.49209C12.6698 8.49209 12.7655 8.52064 12.873 8.52064C12.9804 8.51732 13.0425 8.49209 13.0425 8.49209C13.0425 8.49209 13.1552 8.57089 13.4085 8.57089C13.6621 8.57421 13.8316 8.59601 13.9643 8.60774C14.097 8.61947 14.5418 8.57089 14.6694 8.57454C14.7526 8.57767 14.8343 8.59767 14.9095 8.63331L14.7231 8.09433L14.5066 7.68307L13.8887 7.00641C13.8887 7.00641 13.1472 6.56991 13.1416 6.56659C13.1383 6.56327 12.8847 6.49609 12.8847 6.49609L12.2131 6.90238L11.6038 8.47892L11.592 8.81094L11.9865 8.99731C12.0855 8.8313 12.1948 8.69849 12.2971 8.68167C12.2047 8.69174 12.1342 8.69174 12.1342 8.69174L12.1343 8.69185Z" fill="#D5B457"/>
<path fill-rule="evenodd" clip-rule="evenodd" d="M12.1254 8.8047C12.0666 8.80802 12.0181 8.79629 12.0045 8.75434C11.9542 8.61334 11.9139 8.5932 11.8717 8.5932C11.8296 8.5932 11.7727 8.68384 11.7389 8.69214C11.7052 8.70044 11.6651 8.58811 11.6651 8.58811L11.6281 8.57129C11.6281 8.57129 11.4116 8.71229 11.2588 8.87852C11.1061 9.04475 10.8559 9.32686 10.7434 9.3771C10.631 9.42735 10.2447 9.44428 10.1126 9.47283C9.98044 9.50139 9.83391 9.59712 9.81377 9.61892C9.79363 9.64073 9.87265 9.66419 9.88438 9.68599C9.89611 9.70613 9.755 9.69772 9.74327 9.71919C9.73497 9.73602 9.77647 9.83164 9.79706 9.88033C9.83308 9.86242 9.8726 9.85268 9.91282 9.85178C10.0421 9.84846 10.1362 9.93412 10.2906 9.93412C10.6633 9.93412 11.0007 9.66043 11.2492 9.57643C11.4323 9.51434 11.5901 9.46896 11.7009 9.36825C11.7545 9.32298 11.8503 9.22216 11.9376 9.07275C12.0013 8.97038 12.0635 8.87464 12.1257 8.80415L12.1254 8.8047Z" fill="#D2B257"/>
<path fill-rule="evenodd" clip-rule="evenodd" d="M6.77764 17.1136C6.77764 17.1136 6.74444 16.9894 6.43677 16.6687C6.34945 16.5781 6.29577 16.5027 6.237 16.4488C6.09091 16.311 6.00525 16.2742 5.90122 16.1953C5.6729 16.0257 5.42444 16.0257 5.23308 15.8176C5.04173 15.6094 4.81872 15.2116 4.66378 14.8051C4.51105 14.3988 4.46899 14.2696 4.46899 14.2578C4.46899 14.2461 4.51105 14.1672 4.56473 14.1789C4.6184 14.1907 4.6184 14.2947 4.63191 14.3199C4.65865 14.3611 4.68898 14.3998 4.72255 14.4357C4.80146 14.5264 4.9139 14.6349 4.97101 14.7967C4.95928 14.659 4.91224 14.5063 4.91224 14.5063C4.91224 14.5063 5.20774 14.6927 5.45952 14.8873C5.71307 15.0821 5.81711 15.1493 5.89115 15.2735C5.96519 15.3977 6.13961 15.7251 6.22317 15.8209C6.30673 15.9166 7.45164 16.2775 7.45164 16.2775L7.99627 16.6836L8.26664 17.2762L8.05503 17.6082L7.64875 17.6956L6.98892 17.4001L6.77764 17.1135V17.1136Z" fill="#D2B159"/>
<path fill-rule="evenodd" clip-rule="evenodd" d="M5.3147 15.0722C5.3147 15.0722 5.45237 15.2921 5.78816 15.5003C6.09041 15.6833 6.56885 15.8495 6.99538 15.9486C7.24041 16.0074 7.48556 16.0526 7.70546 16.0561C8.29812 16.0644 8.70606 15.8949 9.21151 15.8395C9.4852 15.8109 9.82099 15.7891 10.1702 15.7067C10.6184 15.5992 10.8837 15.4782 11.2447 15.3082C11.5065 15.1874 11.7467 15.0967 11.9414 14.9809C12.2151 14.8197 12.4148 14.6401 12.6466 14.5864C12.618 14.6653 12.5878 14.8063 12.3595 14.9524C12.4804 14.949 12.6466 14.9407 12.6466 14.9407C12.6466 14.9407 12.4854 15.0363 12.2017 15.2512C12.027 15.384 11.7954 15.6088 11.5587 15.7582C11.4058 15.854 11.2396 15.9242 11.1305 15.9816C10.8649 16.1277 10.7577 16.2015 10.5832 16.38C10.6453 16.3767 10.6504 16.38 10.6504 16.38C10.6504 16.38 10.4304 16.4086 10.2726 16.4924C10.2394 16.4924 10.1819 16.4807 10.0812 16.5093C10.0023 16.5344 9.89813 16.5916 9.79077 16.6217C9.63793 16.6671 9.58769 16.6469 9.58769 16.6469L9.61281 16.6973C9.61281 16.6973 9.4136 16.6939 9.34719 16.7006C9.35893 16.7039 9.35561 16.709 9.35561 16.709C9.34394 16.711 9.33271 16.715 9.3224 16.7208C9.29045 16.7415 9.2553 16.7568 9.21837 16.766C9.19823 16.7693 9.18141 16.7693 9.15617 16.7744C9.16458 16.7946 9.2301 16.9072 9.26032 16.9737C9.23519 16.9905 8.85735 17.2759 8.85735 17.2759C8.86907 17.2943 8.87865 17.3141 8.88591 17.3347C8.89764 17.3715 8.90273 17.4253 8.91446 17.4504C8.9429 17.5008 8.95973 17.5092 8.95973 17.5092C8.95973 17.5092 8.91446 17.5176 8.83544 17.5378C8.76837 17.5546 8.68603 17.583 8.56982 17.5998C8.53417 17.6045 8.4983 17.6073 8.46236 17.6083C8.47918 17.6452 8.553 17.7862 8.41698 17.949C8.28097 18.1118 8.23902 18.1355 8.19708 18.2395C8.17596 18.2236 8.15348 18.2095 8.1299 18.1975C8.08463 18.1773 8.02243 18.1472 8.00063 18.1068C7.98792 18.1607 7.97109 18.2134 7.95027 18.2647C7.90833 18.3771 7.84624 18.488 7.83451 18.5719C7.78913 18.5215 7.70524 18.4225 7.58937 18.4426C7.47349 18.4628 7.38119 18.6206 7.36105 18.666C7.36105 18.6374 7.34091 18.6156 7.33593 18.6491C7.3325 18.6861 7.26875 19.0721 6.91282 19.3845C6.9095 19.3055 6.9095 19.1309 6.90109 19.0739C6.86789 19.1071 6.82727 19.1561 6.58545 19.2603C6.34872 19.3643 6.38624 19.4685 6.38624 19.4685C6.38624 19.4685 6.3661 19.3024 6.4937 19.1276C6.62297 18.953 6.70188 18.8707 6.70188 18.8573C6.69979 18.8437 6.69397 18.8309 6.68506 18.8203C6.66823 18.8035 6.6347 18.7834 6.6347 18.77C6.65484 18.7617 6.85461 18.666 6.84288 18.4677C6.83114 18.2899 6.75567 18.1975 6.70188 18.1321C6.69358 18.1237 6.7809 18.0616 6.76906 18.0414C6.76065 18.0297 6.65329 17.9507 6.63979 17.9086C6.64296 17.8835 6.6486 17.8588 6.65661 17.8348C6.66834 17.7978 6.67676 17.7726 6.67344 17.7475C6.66502 17.7055 6.61965 17.5897 6.60626 17.5779C6.61799 17.5812 6.70188 17.5779 6.70188 17.5779C6.70188 17.5779 6.63481 17.4705 6.62297 17.4201C6.61113 17.3698 6.586 17.2371 6.57261 17.2119C6.60117 17.2153 6.67166 17.2202 6.67166 17.2119C6.67509 17.1867 6.60958 17.1448 6.63846 17.1123C6.6586 17.1156 6.69723 17.1325 6.73408 17.1795C6.71394 17.1257 6.68041 17.0217 6.6098 16.9797C6.643 16.968 6.75589 16.9377 6.85494 16.9965C6.95399 17.0552 6.98775 17.1374 6.98775 17.1374C6.98775 17.1374 7.04651 17.1828 7.13727 17.25C7.2413 17.3322 7.37389 17.4492 7.58549 17.532C7.63087 17.5572 7.74664 17.5572 7.83064 17.5404C7.86721 17.5317 7.90228 17.5176 7.93467 17.4985C7.94636 17.4916 7.95876 17.4859 7.97163 17.4816C7.95359 17.4454 7.93283 17.4106 7.90955 17.3775C7.9381 17.3775 7.97163 17.3809 7.97163 17.3809C7.97163 17.3809 7.99178 17.3356 7.90114 17.2481C7.92128 17.228 7.94651 17.2149 7.94651 17.1809C7.91796 17.1776 7.8676 17.1357 7.85587 17.1189C7.87258 17.1071 7.89782 17.0685 7.92637 17.0568C7.90114 17.0366 7.83905 16.9526 7.81049 16.9443C7.83777 16.9342 7.86416 16.9218 7.8894 16.9074C7.8894 16.9074 7.74841 16.8704 7.70303 16.8402C7.65765 16.807 7.59059 16.7495 7.5503 16.7327C7.50824 16.7159 7.43443 16.7076 7.40421 16.6739C7.43265 16.6824 7.47803 16.6739 7.51168 16.6739C7.5368 16.6739 7.54864 16.6773 7.55694 16.6773C7.55362 16.6655 7.55362 16.6403 7.61914 16.632C7.65065 16.6273 7.68123 16.6176 7.70978 16.6034C7.70978 16.6034 7.64758 16.6001 7.57697 16.533C7.50636 16.4658 7.44771 16.4121 7.40742 16.4037C7.36548 16.3953 7.28657 16.4322 7.23787 16.4288C7.17069 16.4205 7.14214 16.3869 7.14214 16.3869C7.14214 16.3869 6.91891 16.407 6.42365 16.1049C5.99545 15.8429 5.80908 15.6113 5.80908 15.6113C5.769 15.5967 5.73027 15.5787 5.69331 15.5575C5.53217 15.4736 5.30883 15.2989 5.31558 15.0705L5.3147 15.0722Z" fill="#C2A44D"/>
<path fill-rule="evenodd" clip-rule="evenodd" d="M11.489 4.99502C11.5278 5.00764 11.5623 5.03091 11.5886 5.0622C11.6675 5.15284 11.7179 5.32405 11.5382 5.5071C11.6087 5.53223 11.6378 5.54031 11.6994 5.53223C11.6373 5.60616 11.4963 5.76398 11.4879 5.90166C11.4795 6.0141 11.55 6.04774 11.55 6.04774C11.55 6.04774 11.4425 6.17192 11.4375 6.37976C11.4883 6.32253 11.5438 6.26974 11.6035 6.22194C11.7278 6.12289 11.899 6.01045 12.0149 5.93995C12.0133 5.9695 12.0173 5.99908 12.0266 6.02716C12.0266 6.02716 12.2431 5.8492 12.4251 5.92822C12.5073 5.96518 12.4703 6.08095 12.4703 6.08095C12.4703 6.08095 12.5829 6.039 12.6618 6.11791C12.7407 6.19682 12.8523 6.40035 12.9095 6.47926C12.9346 6.51623 13.0001 6.58672 13.0672 6.69585C13.1588 6.84863 13.2353 7.00998 13.2956 7.17761C13.2989 7.09029 13.3207 6.95438 13.5693 7.03993C13.8178 7.12725 14.0998 7.31031 14.3365 7.67077C14.5732 8.03123 14.6319 8.43818 14.7511 8.59312C14.8719 8.74253 14.9962 8.99099 15.0046 9.09514C15.0131 9.19928 14.9677 9.53495 15.2161 10.4433C15.2866 10.1613 15.3941 9.53495 15.3941 9.53495L15.4529 8.98258L15.5201 7.27345L13.7353 5.79076L12.3402 4.77832L11.4319 4.86564L11.4889 4.99491L11.489 4.99502Z" fill="#CAA13E"/>
<path fill-rule="evenodd" clip-rule="evenodd" d="M14.8072 7.53852C14.8072 7.53852 14.7819 7.37251 14.3622 7.09029C13.9425 6.81161 13.6151 6.81161 13.313 6.57488C13.0812 6.38851 12.8395 5.96031 12.6821 5.81932C12.5293 5.67998 12.5042 5.27702 12.5042 5.27702L13.0196 4.84539L13.7861 3.73744L14.4341 3.02393L14.7446 3.45555L15.1762 3.96255L15.4163 4.97997L15.5036 6.46919L14.8064 7.53863L14.8072 7.53852Z" fill="#B59544"/>
<path fill-rule="evenodd" clip-rule="evenodd" d="M15.3247 9.32363C15.3374 9.09779 15.3095 8.8715 15.2423 8.6555C15.1317 8.3113 14.8898 7.70017 14.7775 7.47129C14.7321 7.21774 14.7658 7.1976 14.8145 7.16904C14.8632 7.14049 15.0462 7.03624 15.1465 6.67046C15.2468 6.30468 15.5579 6.29273 15.5579 6.29273L15.7492 6.15173L16.0397 6.87864L16.2932 7.53515L16.3721 8.03717L16.4309 8.46525L16.2932 9.37023L15.6133 9.98469L15.3246 9.32363H15.3247Z" fill="#C89D3A"/>
<path fill-rule="evenodd" clip-rule="evenodd" d="M5.83813 19.4103V19.3918C5.85226 19.3829 5.86474 19.3717 5.87499 19.3585C5.88672 19.3417 5.89524 19.3216 5.90354 19.3166C5.92036 19.3082 5.99928 19.2834 6.04122 19.2914C6.08317 19.2993 6.19406 19.345 6.25283 19.3417C6.37368 19.3384 6.51468 19.246 6.73802 19.288C7.0738 19.3501 7.15271 19.5785 7.3475 19.7077C7.48031 19.7985 7.61776 19.7581 7.63791 19.7581H7.68317C7.69158 19.7581 7.75367 19.6876 7.78732 19.691C7.85449 19.6943 7.86113 19.7498 7.90308 19.7531C8.00213 19.7648 8.1936 19.7027 8.28933 19.728C8.31772 19.7369 8.34353 19.7525 8.36458 19.7735C8.38562 19.7945 8.40127 19.8203 8.41018 19.8487C8.43033 19.9108 8.41351 19.9897 8.36481 20.0351C8.26078 20.1307 8.16172 20.2215 8.14158 20.3007C8.1672 20.3202 8.1918 20.3411 8.21529 20.3631C7.38459 20.1515 6.58535 19.8315 5.83813 19.4113V19.4103Z" fill="#CEB052"/>
<path fill-rule="evenodd" clip-rule="evenodd" d="M14.7776 16.0558C14.7776 16.0558 15.0394 15.7066 15.1302 15.5336C15.2208 15.3553 14.8431 13.0976 14.8431 13.0976L15.602 10.6112L15.5817 9.80193C15.5817 9.80193 15.6187 9.05477 15.706 8.73072C15.8102 8.9171 16.1342 9.1421 16.2047 9.26129C16.2379 9.03286 16.3507 8.5511 16.334 8.03735C16.3961 8.13298 16.5455 9.09506 16.5455 9.09506L16.6949 9.74305L16.8897 10.4314L17.1063 11.1585L17.2355 11.6605L17.3094 11.7813L17.3716 11.9928L17.4303 12.2213L17.5999 12.7568L17.6995 13.1966L17.7784 13.9941C17.7956 14.0552 17.8079 14.1175 17.8154 14.1805C17.8187 14.2678 17.8036 14.3182 17.8036 14.3333C17.8036 14.3485 17.8322 14.5247 17.8204 14.6574C17.8036 14.7902 17.8036 14.8941 17.6995 14.9894C17.5953 15.0847 17.5299 15.6542 17.5299 15.6542L17.3436 15.5301C17.3436 15.5301 17.3805 15.3604 17.2932 15.206C17.2059 15.0516 17.0363 15.0196 16.9406 15.0449C16.845 15.065 16.6536 15.0951 16.5914 15.1489C16.5326 15.2026 16.3883 15.3688 16.2556 15.4444C16.0896 15.544 15.8191 15.5519 15.6748 15.5854C15.5287 15.6186 15.3676 15.7182 15.1979 15.8339C15.0649 15.92 14.9245 15.9941 14.7783 16.0552L14.7776 16.0558Z" fill="#CCA847"/>
<path fill-rule="evenodd" clip-rule="evenodd" d="M14.7776 19.7242C14.7776 19.7242 14.7887 19.7314 14.81 19.7431C16.0028 19.1843 17.0715 18.3922 17.9531 17.4135C17.9435 17.0737 17.931 16.7254 17.9173 16.5964C17.8888 16.3227 17.909 16.044 17.9006 15.8828C17.8922 15.7217 17.8015 15.0652 17.7596 14.8956C17.7142 14.7261 17.6268 14.6421 17.6135 14.6421C17.6018 14.6455 17.5311 14.9612 17.5311 15.0405C17.5311 15.1199 17.5143 15.3109 17.5143 15.3596C17.5026 15.3562 17.4976 15.3264 17.4976 15.3142C17.4808 15.3562 17.4606 15.4301 17.4522 15.4385C17.4438 15.4469 17.464 15.368 17.4522 15.3512C17.4405 15.3344 17.419 15.3428 17.4237 15.3008C17.4257 15.2759 17.4296 15.2513 17.4354 15.227C17.4354 15.227 17.3851 15.3008 17.3482 15.4889C17.3112 15.6752 17.3112 15.6803 17.2978 15.697C17.2861 15.7173 17.2189 15.7844 17.2155 15.8096C17.2122 15.8548 17.2777 15.9002 17.2827 15.9253C17.286 15.9674 17.2239 16.1621 17.2038 16.2574C17.1836 16.3527 17.192 16.5394 17.1706 16.6351C17.1537 16.7224 17.1374 16.7728 17.0799 16.8096C17.1219 16.818 17.1622 16.8298 17.1622 16.8298C17.1622 16.8298 17.2209 17.0782 17.0715 17.2898C17.0178 17.3637 17.0044 17.3973 16.9473 17.4645C16.8348 17.5887 16.7475 17.7301 16.7391 17.8221C16.7332 17.7949 16.7293 17.7674 16.7273 17.7397C16.7273 17.7397 16.5528 17.9429 16.4789 18.0588C16.3832 18.2082 16.2505 18.1998 16.2132 18.2368C16.1759 18.2737 16.1679 18.3408 16.18 18.3946C16.1468 18.4029 16.0844 18.4147 16.0424 18.544C16.0222 18.6111 15.9719 18.6768 15.893 18.722C15.814 18.7671 15.7183 18.7807 15.6696 18.7925C15.7116 18.8042 15.7284 18.8042 15.7485 18.8176C15.7234 18.8595 15.6075 18.925 15.4783 19.009C15.349 19.088 15.2868 19.2037 15.2549 19.2793C15.2217 19.3498 15.1727 19.3952 15.0938 19.4036C15.127 19.4237 15.1761 19.4707 15.2012 19.4858C15.1643 19.4942 15.1016 19.4942 14.9897 19.59C14.8722 19.6874 14.8319 19.7159 14.7781 19.7243L14.7776 19.7242Z" fill="#C39D3C"/>
<path fill-rule="evenodd" clip-rule="evenodd" d="M12.4422 20.5021C12.5065 20.4571 12.5761 20.4201 12.6495 20.3922C12.9113 20.2882 13.1884 20.268 13.2975 20.2345C13.4016 20.2013 13.4839 20.1555 13.6131 20.1304C13.6097 20.1598 13.6068 20.1875 13.6037 20.2136C13.2226 20.3334 12.8345 20.4298 12.4417 20.5021H12.4422Z" fill="#D2BA6B"/>
<path fill-rule="evenodd" clip-rule="evenodd" d="M17.2696 13.6147C17.2696 13.6147 17.2159 13.9051 17.1202 14.0881C17.0245 14.2712 16.921 14.5246 16.921 14.5246C16.9216 14.4675 16.9284 14.4107 16.9411 14.355C16.8203 14.4255 16.5265 14.5951 16.4431 14.6706C16.3642 14.7411 16.2315 14.8654 16.198 14.9242C16.2769 14.6925 16.3591 14.4844 16.3726 14.3886C16.2518 14.4759 15.6875 14.941 15.3938 15.2482L14.4788 15.9886C14.3732 16.0456 14.2644 16.0965 14.1531 16.1411C13.9953 16.2082 13.809 16.2653 13.6713 16.3191C13.7083 16.2201 13.7669 16.1326 13.8493 16.0487C13.9366 15.9665 14.1984 15.6827 14.2387 15.5507C14.2757 15.413 14.2841 15.3308 14.2354 15.2149C14.19 15.2266 14.086 15.2317 14.0155 15.2519C13.945 15.272 13.8694 15.3475 13.8694 15.3475C13.8694 15.3475 13.9231 15.0403 14.039 14.7499C13.9516 14.7532 13.8022 14.7783 13.8022 14.7783C13.8022 14.7783 14.0104 14.4291 14.3667 14.1858C14.2576 14.209 14.1508 14.2421 14.0477 14.2847C13.8395 14.372 13.6112 14.5013 13.4417 14.5718C13.5373 14.439 14.2088 13.4806 14.6085 12.5873C15.0069 11.6958 15.1558 11.4675 15.2431 10.9891C15.2883 10.7523 15.2763 10.4025 15.2883 10.0892C15.3001 9.77853 15.3387 9.49985 15.3136 9.31348C15.4176 9.44274 15.8072 9.80708 15.8206 10.6214C15.8323 11.4356 15.4479 12.5354 15.0399 13.1279C15.1395 13.1565 15.3976 13.1901 15.6628 12.7295C15.9279 12.2689 15.9247 12.1403 16.0205 11.9488C16.0322 12.0446 16.0288 12.0781 16.0288 12.0781C16.0288 12.0781 16.415 11.6097 16.5979 11.0204C16.6349 11.2739 16.744 11.4973 16.5727 11.9623C16.42 12.382 16.2202 12.4845 16.2202 12.4845C16.2202 12.4845 16.3193 12.4677 16.4652 12.3803C16.4905 12.4424 16.4855 12.5132 16.5274 12.5382C16.5694 12.5632 16.6265 12.6053 16.6349 12.6456C16.6802 12.5785 16.7507 12.4928 16.7726 12.429C16.7558 12.5619 16.744 13.1426 16.8058 13.4381C16.9352 13.4263 17.0678 13.4179 17.1584 13.1845C17.0963 13.4129 17.0963 13.5505 17.1383 13.7453C17.2071 13.6984 17.2692 13.6144 17.2692 13.6144L17.2696 13.6147Z" fill="#C0993A"/>
<path fill-rule="evenodd" clip-rule="evenodd" d="M12.908 4.36047C12.908 4.36047 12.7788 4.41415 12.5589 4.41415C12.3675 4.41415 12.4212 4.34033 12.1224 4.34033C11.6624 4.34033 10.0556 4.60595 9.77354 4.60219C9.59048 4.59887 10.3913 4.6811 10.3913 4.6811L12.438 4.70965L12.8493 4.67645L13.0021 4.36545L12.908 4.36047Z" fill="#A88F33"/>
<path fill-rule="evenodd" clip-rule="evenodd" d="M7.60208 8.36147C7.60208 8.36147 7.34012 8.56124 7.22934 8.71408C7.11855 8.86692 7.05978 8.96752 6.93384 9.0918C6.9634 9.09293 6.99294 9.08896 7.02116 9.08007C7.02116 9.08007 7.02116 9.11328 7.00102 9.12202C7.01842 9.12007 7.03604 9.12204 7.05259 9.12779C7.06913 9.13353 7.08419 9.14291 7.09664 9.15522C7.05967 9.17536 6.95896 9.27619 7.03787 9.39538C7.09664 9.48602 7.22092 9.49432 7.22092 9.49432C7.22092 9.49432 7.19237 9.57666 7.31157 9.56825C7.56844 9.55652 7.85553 9.44397 7.98811 9.47252C8.12092 9.50572 8.1964 9.5179 8.29036 9.68081C8.38997 9.84195 8.47674 9.86718 8.47674 9.86718C8.47674 9.86718 8.5355 9.71766 8.52211 9.49443C8.5703 9.37411 8.59701 9.24626 8.60102 9.11671L8.5137 8.47369L8.13265 7.99182L7.63905 8.26552L7.60208 8.36114V8.36147Z" fill="#E3C571"/>
<path fill-rule="evenodd" clip-rule="evenodd" d="M8.07031 8.26554C8.07031 8.26554 8.10728 8.35287 8.26178 8.36117C8.24496 8.39813 8.24496 8.40322 8.25005 8.43166C8.25337 8.46022 8.25835 8.50216 8.25835 8.50216C8.27536 8.49393 8.29073 8.48268 8.30372 8.46896C8.31213 8.50593 8.29531 8.56458 8.30372 8.60664C8.30891 8.63222 8.31736 8.65703 8.32885 8.68046C8.33129 8.67472 8.3341 8.66914 8.33726 8.66375C8.34058 8.65534 8.37046 8.75439 8.45313 8.82976C8.45306 8.81817 8.45591 8.80675 8.46143 8.79656C8.4627 8.81761 8.46966 8.83792 8.48157 8.85532C8.47539 8.85237 8.46974 8.84841 8.46486 8.84359C8.46486 8.84359 8.47316 9.10921 8.51854 9.24655C8.52612 9.23768 8.53287 9.22812 8.53868 9.218C8.53868 9.2097 8.53536 9.29193 8.52695 9.35081C8.51522 9.40958 8.52363 9.49181 8.52363 9.49181C8.5539 9.46798 8.58716 9.44822 8.62257 9.43304C8.67293 9.41279 8.75538 9.3507 8.80563 9.21302C8.83478 9.13505 8.85725 9.05474 8.87281 8.97297C8.88904 9.00422 8.90024 9.03783 8.90601 9.07257C8.90944 9.11452 8.98835 9.09272 8.98835 9.09272L9.00517 8.90966L9.10478 8.49497L9.19542 8.2381L9.63191 7.55823L10.4206 6.95085L11.109 7.10867L11.6898 6.31957L10.6892 5.71851L9.74226 5.81756L8.88288 7.00785L8.1946 8.08747L8.07031 8.26543V8.26554Z" fill="#D8B65B"/>
<path fill-rule="evenodd" clip-rule="evenodd" d="M13.0306 6.54314C13.0306 6.54314 12.9719 6.55487 12.8023 6.64275C12.6328 6.73062 12.5152 6.75851 12.4497 6.88778C12.3842 7.01705 12.3792 7.11953 12.3792 7.11953C12.3792 7.11953 12.4951 7.06917 12.5623 7.05235C12.6328 7.03564 12.7117 7.04062 12.7033 7.06917C12.6952 7.08875 12.684 7.10688 12.6701 7.12285C12.6701 7.12285 12.8029 7.11953 12.7993 7.18505C12.7958 7.25057 12.7742 7.32273 12.7491 7.3546C12.7239 7.3878 12.6198 7.43694 12.6081 7.47556C12.5795 7.55448 12.6198 7.5578 12.6047 7.62154C12.5929 7.68374 12.5376 7.8046 12.3562 8.01609C12.1698 8.2277 12.0906 8.37711 12.0906 8.37711C12.0906 8.37711 11.9999 8.20756 11.9529 8.06147C11.9197 8.07818 11.7414 8.17723 11.7414 8.17723L11.3284 6.73848L11.3367 6.64275C11.3367 6.64275 11.3736 6.59748 11.3821 6.51348C11.32 6.49334 11.3116 6.47652 11.2292 6.39772C11.1469 6.31892 11.0798 6.22307 10.9422 6.15755C10.9221 6.12059 10.8969 6.07034 10.7961 6.05009C10.6954 6.02984 10.635 6.01324 10.635 6.01324C10.635 6.01324 10.6887 5.99298 10.7139 5.95104C10.6517 5.95945 10.6015 5.97959 10.4655 5.97627C10.3278 5.97284 10.3126 5.96786 10.2371 5.97959C10.1617 5.99132 10.0711 6.02497 10.0374 5.90909C10.0004 5.88054 9.92149 5.90577 9.85431 6.00471C9.78714 6.10366 9.76367 6.18268 9.63441 6.2213C9.62532 6.27828 9.60537 6.33299 9.57564 6.38244C9.53867 6.44464 9.47991 6.50673 9.401 6.59903C9.27671 6.74512 9.29685 6.98517 9.09875 7.16822C8.89898 7.35117 9.13195 6.66112 9.13195 6.66112L9.45091 5.89747L10.3592 5.00932L11.7695 4.9137L11.9072 5.64414L12.5956 5.88087L13.0304 6.54403L13.0306 6.54314Z" fill="#D3AE4D"/>
<path fill-rule="evenodd" clip-rule="evenodd" d="M13.2544 6.70443L12.6618 5.84992L12.2471 5.53085C12.2471 5.53085 11.9516 4.987 11.9314 4.97018C11.9146 4.95845 11.6359 4.92824 11.458 4.9165L11.4912 4.99873C11.53 5.01135 11.5645 5.03463 11.5908 5.06591C11.6697 5.15655 11.72 5.32777 11.5404 5.51082C11.6109 5.53594 11.64 5.54402 11.7016 5.53594C11.6395 5.60987 11.4985 5.76769 11.4901 5.90537C11.4816 6.01782 11.5521 6.05135 11.5521 6.05135C11.5521 6.05135 11.4447 6.17564 11.4397 6.38337C11.4904 6.32614 11.546 6.27334 11.6057 6.22555C11.73 6.12594 11.9012 6.01394 12.0171 5.94344C12.0155 5.97303 12.0195 6.00265 12.0288 6.03076C12.0288 6.03076 12.2453 5.8528 12.4272 5.93171C12.5095 5.96868 12.4725 6.08455 12.4725 6.08455C12.4725 6.08455 12.5851 6.04261 12.664 6.12152C12.7429 6.20043 12.8553 6.40351 12.9124 6.48253C12.9376 6.5195 13.0031 6.59 13.0701 6.69901C13.1618 6.85182 13.2383 7.01321 13.2986 7.18088C13.3019 7.1137 13.3154 7.01974 13.4314 7.01974L13.2551 6.7041L13.2544 6.70443Z" fill="#CAA13E"/>
<path fill-rule="evenodd" clip-rule="evenodd" d="M4.36874 9.13189C4.36874 9.13189 4.32679 9.02774 4.36874 8.82466C4.41069 8.62157 4.4762 8.52584 4.49801 8.22702C4.51981 7.9282 4.71459 7.55546 4.71459 7.55546L5.25346 7.31042L5.63462 7.41446L5.74707 7.92488L5.26519 8.1905C5.26519 8.1905 5.24007 8.30294 5.10405 8.39359C4.96804 8.48423 4.78 8.55473 4.73474 8.64714C4.70768 8.70373 4.68793 8.76353 4.67597 8.8251C4.67597 8.8251 4.53829 8.79655 4.45606 8.88719C4.36874 8.9796 4.37206 9.06183 4.36874 9.13233V9.13189Z" fill="#F4EFC8"/>
<path fill-rule="evenodd" clip-rule="evenodd" d="M5.45622 8.99605C5.45622 8.99605 5.41085 9.02461 5.37731 9.09566C5.34411 9.04198 5.26476 8.72291 5.26144 8.43582C5.25812 8.14874 5.24096 8.07757 5.30737 7.97863C5.37377 7.87969 5.63419 7.77544 5.59722 7.59725C5.56026 7.4277 5.40576 7.3572 5.21606 7.4059C5.08326 7.4391 4.98442 7.72154 4.84675 7.86254C4.7426 7.97 4.61843 7.95318 4.58489 8.01194C4.53952 8.09085 4.58146 8.16977 4.56807 8.22012C4.56464 8.23694 4.52269 8.32759 4.4471 8.43671C4.29437 8.65662 4.03584 8.96728 4.0022 9.24595C4.01393 9.08813 4.00563 9.08481 4.04757 8.91017L4.02234 8.86823L4.18835 8.32427L4.29581 7.87604L4.53597 7.12545L4.95897 6.35826L5.37034 5.89819L5.79843 5.92675L5.84878 6.56976L6.09392 7.77699L6.60933 8.41159L5.78326 8.9675L5.45589 8.99605H5.45622Z" fill="#EBCC73"/>
<path fill-rule="evenodd" clip-rule="evenodd" d="M5.71298 9.22425C5.71298 9.22425 5.64248 9.24108 5.61725 9.22768C5.59201 9.21429 5.567 9.19913 5.5753 9.18231C5.5836 9.16549 5.62898 9.13704 5.62898 9.12354C5.62991 9.11134 5.62605 9.09926 5.61822 9.08985C5.61039 9.08045 5.5992 9.07447 5.58703 9.07318C5.54841 9.0682 5.53668 9.09333 5.53668 9.09333C5.53668 9.09333 5.49971 9.06488 5.46961 9.06012C5.48742 9.05794 5.50534 9.0568 5.52329 9.05669C5.47689 9.03568 5.42768 9.02155 5.3772 9.01475C5.41914 8.98963 5.50148 8.9157 5.55516 8.9157C5.60884 8.9157 5.64248 8.90739 5.63407 8.87884C5.62566 8.85029 5.58371 8.80834 5.53845 8.79152C5.55516 8.77138 5.567 8.74116 5.52672 8.65871C5.48466 8.57648 5.50148 8.52103 5.51499 8.501C5.52672 8.47577 5.56866 8.4305 5.5888 8.40195C5.60895 8.3734 5.62577 8.33477 5.6593 8.31463C5.67613 8.3029 5.7298 8.28143 5.78359 8.26095C5.84236 8.24081 5.89105 8.21558 5.92459 8.24081C5.96155 8.26593 5.94473 8.29958 5.94473 8.29958C5.94473 8.29958 6.06061 8.25752 6.16464 8.31131C6.26878 8.36155 6.52234 8.39354 6.52234 8.39354L6.6132 8.57659L6.01213 9.092L5.76367 9.21628L5.71331 9.22459L5.71298 9.22425Z" fill="#E5C66B"/>
<path fill-rule="evenodd" clip-rule="evenodd" d="M6.54643 8.38141C6.54643 8.38141 6.36005 8.50569 6.31811 8.55096C6.34323 8.55439 6.38518 8.57121 6.36835 8.59634C6.34821 8.62146 6.22736 8.70878 6.16018 8.79112C6.08968 8.87335 6.0225 8.9775 5.99904 9.02785C5.97391 9.07312 5.78245 9.20581 5.71704 9.22253C5.85472 9.22253 6.13173 9.05297 6.23577 9.05297C6.23245 9.10333 6.26432 9.16044 6.32309 9.16542C6.38186 9.1704 6.55141 9.20238 6.77973 9.06139C7.00805 8.92371 6.93257 8.82122 7.02819 8.75416C7.21124 8.63319 7.28506 8.52573 7.38578 8.45866C7.48649 8.39159 7.53862 8.37632 7.53862 8.37632C7.53862 8.37632 7.54194 8.32596 7.57182 8.33105C7.58 8.33199 7.58776 8.33514 7.59428 8.34018C7.60079 8.34521 7.60581 8.35193 7.60878 8.35961C7.60878 8.35961 7.78342 8.23532 8.00721 8.20178C8.00199 8.19945 7.99781 8.19527 7.99547 8.19005C7.99547 8.19005 8.01219 8.18164 8.01562 8.17323C8.01562 8.17323 8.02735 8.15641 8.03576 8.16482C8.04417 8.17323 8.0559 8.23532 8.07273 8.26055C8.10969 8.24373 8.18019 8.08591 8.18019 8.08591L8.34985 7.60072V7.15747L8.21704 7.1827L7.22098 7.6057L6.61648 8.232L6.54599 8.38141H6.54643Z" fill="#E6BD62"/>
<path fill-rule="evenodd" clip-rule="evenodd" d="M9.41443 6.20747C9.46831 6.1944 9.51996 6.17344 9.56771 6.14527C9.54757 6.19906 9.54757 6.25782 9.46025 6.38543C9.37293 6.51304 9.36961 6.53152 9.29911 6.66411C9.22861 6.80178 9.2202 6.99989 9.15302 7.0871C9.18313 7.07247 9.21543 7.06286 9.24864 7.05866C9.24864 7.05866 9.18157 7.11743 9.15302 7.17951C9.12447 7.2416 9.07411 7.37087 8.94994 7.44989C8.82576 7.52891 8.66783 7.57915 8.49828 7.76553C8.32861 7.94847 8.15408 8.18022 8.06665 8.26356C8.11203 8.18465 8.17411 8.02683 8.19094 7.9228C8.20776 7.81876 8.18751 7.69437 8.21606 7.5568C8.24461 7.41923 8.24461 7.32007 8.38207 7.07991C8.51953 6.83975 8.75482 6.00538 8.75482 6.00538L9.26181 5.84424L9.41465 6.20691L9.41443 6.20747Z" fill="#B6933F"/>
<path fill-rule="evenodd" clip-rule="evenodd" d="M9.0492 5.90011C9.0492 5.90011 8.89647 6.12002 8.85452 6.3148C8.81258 6.50959 8.85109 6.49277 8.82597 6.5885C8.81094 6.64687 8.81094 6.70809 8.82597 6.76646C8.87886 6.68125 8.95128 6.60985 9.03724 6.55817C9.18167 6.47096 9.29921 6.40876 9.36926 6.33495C9.43976 6.25603 9.49853 6.12677 9.65126 6.02772C9.58917 6.0193 9.50185 5.99075 9.48525 5.99451C9.54745 5.92401 9.73371 5.81655 9.92174 5.68728C10.1081 5.55448 10.0964 5.50091 10.3986 5.36832C10.2996 5.38515 10.2525 5.35991 10.1702 5.36832C10.2034 5.29782 10.3196 5.26418 10.4358 5.14842C10.552 5.03265 10.362 4.86133 10.362 4.86133L9.47662 5.39688L9.04853 5.90055L9.0492 5.90011Z" fill="#C49937"/>
<path fill-rule="evenodd" clip-rule="evenodd" d="M6.64673 5.50045L6.66687 5.33931L6.92042 4.93302L7.18571 4.21951V3.24404L7.16557 2.67993L7.20751 2.31051L7.23938 2.19308L7.27303 2.14771L7.48951 2.26015L7.78844 2.66643L7.81699 3.45055L7.52647 4.68788L6.69708 5.59286L6.64673 5.50045Z" fill="#DFC068"/>
<path fill-rule="evenodd" clip-rule="evenodd" d="M7.30578 2.10255C7.30578 2.10255 7.17297 2.10598 7.14464 2.65835C7.11631 3.21072 7.10258 3.50113 7.08244 3.77483C7.0623 4.04852 7.01537 4.21464 6.9918 4.37589C6.96823 4.53714 6.95483 4.75694 6.87935 4.8913C6.84615 4.95339 6.77521 5.14817 6.60898 5.29426C6.4226 5.4554 6.14415 5.56796 6.10198 5.57637C6.02805 5.59308 5.65365 5.63004 5.50092 5.71405C5.44724 5.7426 5.35483 5.77613 5.25245 5.87187C5.04926 6.05481 4.77899 6.38218 4.58421 6.77673C4.28539 7.36607 3.98657 9.02982 3.98657 9.02982L4.05375 8.91738C4.05375 8.91738 4.06216 8.76797 4.21157 8.506C4.35766 8.24415 4.31572 7.95031 4.5188 7.4483C4.59771 7.25694 4.69676 7.00848 4.81762 6.79687C5.00908 6.45268 5.24072 6.15718 5.47413 5.99604C5.85518 5.73419 6.27497 5.67708 6.27497 5.67708L6.72662 5.37826C6.72662 5.37826 6.80554 5.22553 6.90968 5.05089C7.05566 4.80586 7.2417 4.53216 7.28232 4.13429C7.34451 3.54496 7.19499 3.15882 7.20341 2.80964C7.21182 2.46047 7.21514 2.20359 7.28575 2.1414C7.35636 2.0792 7.30589 2.10277 7.30589 2.10277L7.30578 2.10255Z" fill="#A88F33"/>
<path fill-rule="evenodd" clip-rule="evenodd" d="M7.30583 4.73832C7.30583 4.73832 7.50504 4.24804 7.59623 3.8132C7.61305 3.72588 7.64659 3.63867 7.655 3.56817C7.69694 3.1568 7.70868 2.98725 7.655 2.76225C7.61305 2.59624 7.45191 2.44661 7.36791 2.33062C7.28568 2.20966 7.24706 2.16461 7.26388 2.13916C7.2807 2.1137 7.34611 2.07209 7.40986 2.07707C7.47762 2.07904 7.54428 2.09478 7.60577 2.12331C7.66726 2.15185 7.7223 2.1926 7.76755 2.24308C7.89682 2.39249 7.99919 2.89959 7.99919 2.89959L8.10688 3.56873L8.38057 4.4115L7.30605 4.73899L7.30583 4.73832Z" fill="#C99E3D"/>
<path fill-rule="evenodd" clip-rule="evenodd" d="M9.179 4.22795C9.179 4.22795 9.14203 4.24466 9.07496 4.22795C9.07782 4.25536 9.07307 4.28302 9.06121 4.3079C9.04936 4.33278 9.03087 4.3539 9.00779 4.36895C8.93729 4.34039 8.27734 4.3975 8.27734 4.3975C8.27734 4.3975 7.97011 4.34371 7.87438 3.93743C7.80731 3.66705 7.92474 3.29442 7.88611 3.04928C7.82734 2.68826 7.74511 2.61765 7.7367 2.50532C7.72829 2.39298 7.71988 2.36432 7.71988 2.29382C7.68291 2.28541 7.66111 2.27368 7.62426 2.27368C7.61585 2.24047 7.63256 2.21148 7.5957 2.15271C7.61585 2.16112 7.75352 2.17794 7.91466 2.33067C8.04747 2.45496 8.04747 2.50022 8.0675 2.52546C8.09263 2.55058 8.29582 2.72467 8.38314 2.89821C8.47047 3.07174 8.64002 3.62511 8.67864 3.71575C8.69037 3.75272 8.71561 3.78968 8.77825 3.87357C8.87564 3.99454 9.0183 4.19452 9.17944 4.22773L9.179 4.22795Z" fill="#B58634"/>
<path fill-rule="evenodd" clip-rule="evenodd" d="M8.09009 2.53369C8.19179 2.69799 8.28317 2.86846 8.36367 3.04412C8.46273 3.26735 8.52149 3.4504 8.64578 3.59981C8.5786 3.40513 8.45941 3.02231 8.38891 2.8863C8.31 2.74242 8.14886 2.58748 8.09009 2.5338V2.53369Z" fill="#A88F33"/>
<path fill-rule="evenodd" clip-rule="evenodd" d="M6.9494 5.29406C6.9494 5.29406 6.77985 5.336 6.4642 5.50223C6.36006 5.55591 6.26112 5.60117 6.16539 5.64323C5.9167 5.75567 5.64998 5.8596 5.43837 5.91693C5.4552 5.93707 5.4635 5.94537 5.4635 5.94537C5.4635 5.94537 5.4635 6.02771 5.50887 6.07464C5.48375 6.09987 5.14786 6.32819 5.24702 7.09206C5.31409 7.06693 5.393 7.03329 5.40473 7.03329C5.42498 7.03672 5.42996 7.09206 5.45508 7.09206C5.48021 7.09206 5.56255 7.05885 5.64987 6.94597C5.64655 6.99134 5.59619 7.44798 5.86646 7.75521C5.91681 7.69644 6.04442 7.50166 6.04442 7.50166L6.04774 7.43957C6.04774 7.43957 6.05947 7.22298 6.13008 7.02488C6.20069 6.82677 6.33826 6.68068 6.33826 6.68068L7.05664 5.65485L6.94918 5.29395L6.9494 5.29406Z" fill="#E6C367"/>
<path fill-rule="evenodd" clip-rule="evenodd" d="M6.27882 6.8003C6.24593 6.82355 6.2097 6.84165 6.17136 6.85398C6.15963 6.81204 6.14281 6.66761 6.24186 6.52661C6.35773 6.35695 6.61118 6.13704 6.68168 5.96217C6.72705 5.84962 6.70691 5.56762 7.10987 5.20661C7.51283 4.84559 7.67054 4.72142 7.67054 4.72142L8.32197 4.39404L9.1228 4.70968L8.72493 6.26907L8.41604 6.99952L7.18756 6.76788L6.27871 6.8003H6.27882Z" fill="#DCBA5A"/>
<path fill-rule="evenodd" clip-rule="evenodd" d="M6.74634 6.37691L6.89918 6.18556V6.04954C6.89918 6.04954 7.06873 6.00416 7.25167 5.81779C7.43462 5.63141 7.68817 5.27383 7.91151 5.29563C8.13485 5.32086 8.15665 5.78082 8.16506 5.9102C8.17347 6.03958 8.20203 6.33319 8.24729 6.49113C8.29765 6.64895 7.70333 7.24658 7.70333 7.24658L7.29971 7.55381L6.74634 6.37691Z" fill="#E9CE77"/>
<path fill-rule="evenodd" clip-rule="evenodd" d="M7.21924 7.97015C7.21924 7.97015 7.34352 7.77536 7.25244 7.73342C7.30612 7.61256 7.40517 7.48496 7.40517 7.48496C7.40517 7.48496 7.47567 7.31043 7.70399 7.0955C7.93231 6.88057 8.07342 6.7378 8.11038 6.59348C8.13317 6.49943 8.14557 6.40316 8.14735 6.3064C8.17203 6.32656 8.19843 6.34452 8.22626 6.36007C8.26322 6.3769 8.43775 6.52121 8.41263 6.81173C8.38751 7.10225 8.27982 7.2231 8.27982 7.2231C8.27982 7.2231 8.17579 7.32714 8.10197 7.38093C8.02295 7.4346 7.99451 7.49669 7.86181 7.50178C7.87545 7.49094 7.89078 7.48241 7.90718 7.47655C7.90718 7.47655 7.76951 7.45984 7.69558 7.5269C7.62165 7.59397 7.46449 7.8006 7.38558 7.8628C7.30667 7.91315 7.21957 7.97026 7.21957 7.97026L7.21924 7.97015Z" fill="#CDAE50"/>
<path fill-rule="evenodd" clip-rule="evenodd" d="M12.8019 4.70457C12.6035 4.63228 12.3951 4.5915 12.1841 4.58371C11.8315 4.57198 11.3161 4.59213 10.8108 4.59545C10.2668 4.59877 9.77319 4.40907 9.08824 4.37554C8.97579 4.30836 8.68981 4.01452 7.79712 4.63739C7.8508 4.63407 8.44522 4.49971 8.65163 4.75836C8.85981 5.01523 8.80104 5.45173 8.77259 5.55576C8.71881 5.78751 8.54416 6.12495 8.47378 6.36168C8.40339 6.59841 8.41999 6.72281 8.36963 6.88882C8.31928 7.05483 8.20849 7.13728 8.2739 7.32864C8.36122 7.27496 8.40671 7.27496 8.55258 6.94759C8.69844 6.62022 8.66845 6.38681 8.91027 6.10979C9.147 5.83111 9.54111 5.44996 9.69096 5.35422C9.84081 5.25849 11.0307 4.64071 12.2765 5.23005C12.577 5.19817 12.802 4.70446 12.802 4.70446L12.8019 4.70457Z" fill="#D2A83E"/>
<path fill-rule="evenodd" clip-rule="evenodd" d="M8.29851 4.47612C8.29728 4.4635 8.29449 4.45109 8.29021 4.43916C8.27856 4.4146 8.26326 4.39195 8.24483 4.37198C8.24483 4.37198 7.94934 4.3183 7.79993 4.33501C7.53796 4.36357 7.30123 4.68762 7.19045 4.85385C7.07966 5.02008 6.94199 5.27684 6.79258 5.40954C6.79421 5.39661 6.79123 5.38352 6.78417 5.37258C6.78417 5.37258 6.79258 5.38431 6.77587 5.40113C6.75915 5.41795 6.75904 5.42625 6.76745 5.43433L6.79269 5.45945C6.80099 5.45945 7.03274 5.35531 7.34838 5.06103C7.68416 4.7538 7.94104 4.5962 8.07539 4.54219C8.14705 4.51174 8.22194 4.48958 8.29862 4.47612H8.29851Z" fill="#C29637"/>
<path fill-rule="evenodd" clip-rule="evenodd" d="M14.032 3.21387C14.032 3.21387 13.9782 3.28094 13.911 3.35487C13.7616 3.51269 13.5668 3.69054 13.4006 3.87359C13.2429 4.04823 13.0649 4.18425 12.865 4.41257C12.6652 4.64089 12.4334 4.89433 12.3748 4.96826C12.3211 5.04219 12.2791 5.16305 12.2791 5.22514C12.2506 5.20499 12.217 5.18319 12.217 5.18319C12.2312 5.20955 12.248 5.23433 12.2674 5.25712C12.3093 5.31589 12.3748 5.38993 12.4084 5.43508C12.4497 5.49257 12.4793 5.55757 12.4956 5.62644C12.5157 5.62976 12.645 5.65499 12.8063 5.38971C12.9675 5.12442 13.1789 4.83402 13.1789 4.83402L13.5147 4.33532L13.7263 3.91233L13.9919 3.43887L14.0323 3.21387H14.032Z" fill="#AC8132"/>
<path fill-rule="evenodd" clip-rule="evenodd" d="M14.3741 2.87476C14.3741 2.87476 14.1709 3.04077 14.092 3.14037C14.0131 3.23998 13.8264 3.50139 13.8264 3.50139L13.8936 3.49298L14.2345 3.19084L14.3673 2.95411L14.374 2.8752L14.3741 2.87476Z" fill="#A88F33"/>
<path fill-rule="evenodd" clip-rule="evenodd" d="M14.3136 16.2171C14.3136 16.2171 14.3103 16.0795 14.3876 15.9972C14.4665 15.9149 14.6662 15.794 14.861 15.3407C15.0558 14.8874 15.0775 14.785 15.0775 14.785C15.0775 14.785 14.7283 15.0838 14.5131 15.1543C14.5634 15.0502 14.592 14.9764 14.6172 14.9226C14.5887 14.8975 14.4678 14.8689 14.4561 14.8555C14.5231 14.7883 14.5601 14.6238 14.6961 14.5146C14.8708 14.3818 15.1897 14.1536 15.4376 13.9502C15.6855 13.7468 16.1729 13.2737 16.2351 13.136C16.2721 13.1897 16.2804 13.2232 16.2804 13.2232C16.2804 13.2232 16.0354 13.5423 15.9078 13.7454C15.7952 13.92 15.8036 14.0191 15.8036 14.0191L16.0354 13.9194C16.0354 13.9194 16.1024 14.1679 15.7986 14.5457C15.9315 14.4954 15.985 14.5256 16.0605 14.4835C15.9362 14.5626 15.765 14.67 15.6039 14.9654C15.446 15.2609 15.2311 15.6051 14.8685 15.8199C14.5159 16.0466 14.3127 16.2161 14.3127 16.2161L14.3136 16.2171Z" fill="#A67A2E"/>
<path fill-rule="evenodd" clip-rule="evenodd" d="M13.4026 4.87927C13.4026 4.87927 13.2649 5.16624 13.2448 5.38958C13.2415 5.44337 13.228 5.48532 13.228 5.5474C13.2246 5.74717 13.2397 5.97051 13.1948 6.07454C13.1779 6.0326 13.1695 6.00404 13.1527 5.98733C13.1276 6.05783 13.0822 6.27774 13.0452 6.35997C13.0285 6.30629 12.9916 6.11992 12.995 5.90001C12.9984 5.6801 13.0033 5.63805 13.0033 5.59278C12.995 5.65985 12.9496 5.7506 12.9328 5.80428C12.9077 5.75901 12.8791 5.70024 12.8455 5.65155C12.8253 5.68475 12.8002 5.73378 12.7784 5.75901C12.775 5.73887 12.7667 5.68508 12.7616 5.6096C12.7583 5.52228 12.7532 5.40984 12.7583 5.38626C12.7666 5.341 12.8372 5.16304 12.9866 5.00012C13.1645 4.80534 13.3476 4.43104 13.4013 4.31517C13.4549 4.19929 13.6833 3.71753 13.6833 3.71753H13.8579L13.6044 4.29502C13.6044 4.29502 13.4516 4.61066 13.3727 4.72665C13.2938 4.84264 13.1276 5.17499 13.0536 5.30425C13.1073 5.23376 13.1527 5.19679 13.2065 5.12961C13.2585 5.08258 13.4028 4.87949 13.4028 4.87949L13.4026 4.87927Z" fill="#8C6228"/>
<path fill-rule="evenodd" clip-rule="evenodd" d="M14.377 2.85303C14.3485 2.94083 14.3034 3.02235 14.2442 3.09319C14.1401 3.21747 13.9167 3.3836 13.8077 3.51618C13.7081 3.64545 13.5089 3.99805 13.5994 4.41607C13.6326 4.32543 13.6951 4.1458 13.8614 3.94261C14.0276 3.73941 14.2056 3.50611 14.293 3.32483C14.3802 3.14177 14.3919 2.99746 14.3919 2.99746L14.4252 2.95551L14.405 2.85978L14.3765 2.85303H14.377Z" fill="#CBA94C"/>
<path fill-rule="evenodd" clip-rule="evenodd" d="M17.7781 13.989C17.7781 13.989 17.7109 13.8061 17.6908 13.6399C17.6706 13.4736 17.724 13.4406 17.6622 13.2504C17.6252 13.1345 17.5582 13.1508 17.5413 13.1345C17.5245 13.1182 17.5128 12.9432 17.5161 12.8474C17.5194 12.7517 17.5128 12.6275 17.496 12.5737C17.4708 12.5536 17.454 12.5368 17.4171 12.4126C17.3751 12.2883 17.355 12.2262 17.3348 12.1894C17.3147 12.1525 17.2558 12.1189 17.2558 12.0819C17.2558 12.008 17.323 11.9695 17.323 11.9491C17.3197 11.9071 17.2693 11.9408 17.2558 11.929C17.2391 11.9088 17.2979 11.788 17.2761 11.7711C17.2676 11.7628 17.2089 11.8333 17.1937 11.8132C17.1769 11.7929 17.1568 11.5932 17.1265 11.4606C17.0981 11.3313 17.0678 11.2374 17.0645 11.1987C17.0611 11.1618 16.8327 10.5103 16.7774 10.3525C16.7328 10.2192 16.6952 10.0835 16.6649 9.94624C16.6481 9.86733 16.6364 9.70607 16.628 9.7229C16.6195 9.73972 16.6246 9.82195 16.6111 9.81863C16.5994 9.8152 16.5575 9.52822 16.5441 9.48285C16.5323 9.43747 16.4617 9.28363 16.4445 9.1723C16.4276 9.05974 16.3908 8.7659 16.3655 8.56614C16.3403 8.36637 16.3286 8.28414 16.3286 8.23412C16.3327 8.11176 16.326 7.98928 16.3084 7.86812C16.2752 7.65651 16.2088 7.39964 16.1506 7.25034C16.0382 6.96824 15.7392 6.24631 15.6858 6.06669C15.6858 6.02131 15.7446 6.04655 15.7446 6.04655C15.7446 6.04655 15.8905 6.41254 15.998 6.69454C16.1021 6.97665 16.2012 7.22511 16.2264 7.25034C16.2466 7.27546 16.4044 7.55248 16.4749 8.0058C16.5454 8.45912 16.5705 8.87713 16.6126 9.15581C16.6327 9.28861 16.6495 9.4295 16.6915 9.5705C16.7367 9.72334 16.8072 9.88116 16.8997 10.1229C16.9786 10.3261 17.0373 10.4956 17.0692 10.6417C17.1062 10.8281 17.1062 10.9691 17.128 11.0615C17.1482 11.1404 17.1783 11.2981 17.2489 11.5263C17.3196 11.7545 17.4235 12.0485 17.494 12.2314C17.6318 12.5974 17.6932 12.903 17.714 13.0659C17.7324 13.2338 17.7946 13.8147 17.7777 13.9892L17.7781 13.989Z" fill="#A88F33"/>
<path fill-rule="evenodd" clip-rule="evenodd" d="M14.3863 2.83252L14.3779 2.85266C14.3779 2.85266 14.403 2.86107 14.398 2.89472C14.3984 2.94075 14.3956 2.98675 14.3896 3.0324C14.3813 3.09116 14.3645 3.13643 14.3612 3.17339C14.3612 3.2523 14.3729 3.34295 14.2616 3.56794C14.2284 3.63003 14.2079 3.68371 14.1911 3.72067C14.1491 3.81131 14.1407 3.82482 14.1038 3.86676C14.1625 3.83356 14.3741 3.70075 14.4815 3.72067C14.4077 3.76262 14.2951 3.84496 14.2246 3.95242C14.2414 3.95574 14.3119 3.96925 14.4238 3.95242C14.6102 3.92387 14.8184 3.85669 15.0013 3.87008C15.2012 3.88181 15.1223 3.63003 15.1223 3.63003L14.8916 3.12304L14.4551 2.81592L14.3863 2.83263V2.83252Z" fill="#BE9C44"/>
<path fill-rule="evenodd" clip-rule="evenodd" d="M15.5236 6.63061C15.5236 6.63061 15.3288 6.43582 15.2499 5.76735C15.171 5.09579 15.1878 4.10725 15.1878 4.10725L15.03 3.72111C15.03 3.72111 14.9968 3.46424 14.9141 3.36862C14.8314 3.273 14.6691 3.11174 14.5951 3.03283C14.5212 2.95392 14.4373 2.84646 14.387 2.82964C14.4121 2.78769 14.5246 2.55096 14.956 2.54764C15.3875 2.54432 15.5205 2.78437 15.5655 2.87169C15.6106 2.95901 15.814 3.33652 15.8895 4.0559C15.96 4.77439 15.9634 4.82818 15.9517 5.07664C15.9433 5.21432 15.8979 5.53328 15.8189 5.87404C15.7467 6.1629 15.6678 6.48529 15.5234 6.63127L15.5236 6.63061Z" fill="#A17C34"/>
<path fill-rule="evenodd" clip-rule="evenodd" d="M14.9139 7.20304C14.9788 7.20772 15.0437 7.19309 15.1003 7.16098C15.1624 7.15766 15.3874 7.18622 15.5603 6.96631C15.572 7.01655 15.6023 7.15268 15.5233 7.27354C15.5654 7.23148 15.6274 7.21477 15.6358 7.20304C15.6392 7.26513 15.6979 7.45648 15.4495 7.92153C15.5165 7.84771 15.5955 7.85103 15.666 7.84262C15.6694 7.92994 15.7163 8.22367 15.5921 8.3816C15.5099 8.48906 15.3755 8.45542 15.3755 8.45542C15.3775 8.43196 15.3775 8.40838 15.3755 8.38492C15.3722 8.33954 15.3554 8.29428 15.3672 8.26407C15.3023 8.23441 15.2432 8.19345 15.1926 8.1431C15.0465 8.00542 14.8568 7.77046 14.8434 7.59582C14.8266 7.40103 15.0012 7.35909 15.0012 7.35909C14.9866 7.346 14.9741 7.33069 14.9643 7.31371C14.9559 7.28527 14.9475 7.23989 14.9139 7.20304Z" fill="#8C6228"/>
<path fill-rule="evenodd" clip-rule="evenodd" d="M13.6184 5.09077C13.6184 5.09077 13.61 5.07904 13.5647 5.13271C13.5731 5.07904 13.5815 5.02857 13.5848 4.97987C13.6063 4.93479 13.634 4.89298 13.6672 4.8557C13.6419 4.90594 13.6251 4.95132 13.6251 4.95132C13.6251 4.95132 13.6873 4.83544 13.778 4.76495C13.8401 4.71459 13.919 4.69113 13.9525 4.64409C13.9895 4.59373 13.9811 4.58532 13.9895 4.57691C13.9895 4.57691 14.0718 4.52323 14.1977 4.3653C14.2145 4.34516 14.2397 4.32336 14.2565 4.30322C14.285 4.29148 14.3521 4.26127 14.431 4.22088C14.5134 4.17561 14.6057 4.11352 14.6628 4.08807C14.7752 4.03771 14.8945 4.0428 14.9499 3.96378C14.9918 3.95205 15.0371 3.8261 15.0288 3.71875C15.0909 3.74387 15.4098 3.94198 15.5191 4.37515C15.598 4.68238 15.4569 5.15584 15.3981 5.38427C15.3393 5.6127 15.331 5.78215 15.2487 5.88618C15.1446 6.02397 14.8089 6.2182 14.7265 6.31437C14.656 6.39328 14.4446 6.59305 14.4529 6.73737C14.4613 6.84483 14.5938 6.90338 14.6225 6.92374C14.6512 6.94411 14.651 6.96912 14.7047 6.95694C14.7585 6.94477 14.7786 6.91998 14.8005 6.91998C14.8256 6.9233 14.8256 6.92839 14.8373 6.92839C14.8458 6.92814 14.8543 6.92699 14.8626 6.92496C14.8626 6.92496 14.8542 7.0778 14.4966 7.12417C14.4713 7.1276 14.4462 7.1359 14.4142 7.14099C14.4563 7.12085 14.4814 7.12085 14.5268 7.05876C14.4764 7.05035 14.332 7.04194 14.295 7.03021C14.3068 7.01007 14.3454 6.95628 14.3773 6.93116C14.4058 6.90603 14.3739 6.89795 14.3488 6.91101C14.3056 6.94044 14.2641 6.97237 14.2245 7.00664C14.1826 7.0436 14.1456 7.09396 14.0784 7.13944C14.0583 7.07227 14.0616 6.94466 14.1406 6.85236C14.1204 6.85568 14.0818 6.91445 14.0449 6.90271C14.0382 6.84148 14.0422 6.77955 14.0566 6.71966C14.0768 6.64407 14.1859 6.51148 14.1859 6.51148L14.713 5.56954L14.8255 4.85603L13.6184 5.09055V5.09077Z" fill="#92723A"/>
<path fill-rule="evenodd" clip-rule="evenodd" d="M13.5897 5.13112C13.5897 5.13112 13.5611 5.15127 13.6182 5.18989C13.6098 5.20162 13.5897 5.24357 13.5644 5.27212C13.536 5.30533 13.5057 5.32591 13.4939 5.35446C13.4688 5.41323 13.4487 5.45352 13.4487 5.47875C13.4487 5.50398 13.4403 5.66512 13.3698 5.76916C13.3445 5.80612 13.316 5.86821 13.2958 5.91016C13.2539 5.98397 13.2169 6.04296 13.2085 6.07617C13.1918 6.13493 13.1801 6.29607 13.1801 6.29607C13.1801 6.29607 13.217 6.2507 13.2304 6.23399C13.2102 6.27593 13.1884 6.3212 13.1565 6.35484C13.1766 6.33802 13.2354 6.29607 13.3345 6.20875C13.4721 6.09299 13.6871 5.8982 13.949 5.74392C13.87 5.77248 13.8029 5.77248 13.7493 5.78089C13.7912 5.73894 14.1689 5.2957 14.367 5.25375C14.3791 5.2385 14.3851 5.21935 14.3839 5.19996L14.2142 5.18325L13.87 5.25707L13.8198 4.99146L13.5897 5.13079V5.13112Z" fill="#B18E3E"/>
<path fill-rule="evenodd" clip-rule="evenodd" d="M14.1374 6.64223C14.1374 6.64223 14.092 6.6875 14.0501 6.80005C14.0178 6.76633 13.9901 6.72849 13.9677 6.6875C13.9056 6.58347 13.81 6.45077 13.5867 6.52636C13.5834 6.45586 13.5783 6.4189 13.5867 6.36854C13.6237 6.36024 13.7361 6.2696 13.8485 6.1369C13.9276 6.04626 14.0014 5.94211 14.0517 5.80953C14.0849 5.78429 14.1424 5.74235 14.2177 5.69365C14.3252 5.61983 14.4545 5.51901 14.4746 5.40657C14.4243 5.42671 14.3168 5.47706 14.1555 5.46876C14.2177 5.44021 14.3134 5.41 14.3016 5.28571C14.3269 5.26889 14.347 5.25716 14.347 5.25716C14.3281 5.25084 14.3082 5.248 14.2882 5.24875C14.2848 5.23701 14.2798 5.2203 14.2513 5.2286C14.2227 5.2369 14.2181 5.23701 14.2143 5.24875C14.2026 5.25218 14.164 5.24875 14.1354 5.269C14.1069 5.28925 14.0279 5.35621 13.9977 5.36794C14.0095 5.3478 14.0262 5.31769 14.0262 5.31769C14.0262 5.31769 13.9439 5.326 13.8852 5.3509C13.7777 5.38786 13.6535 5.45504 13.5276 5.52045C13.5393 5.50031 13.5444 5.48725 13.5527 5.48348C13.561 5.47972 13.5813 5.47518 13.5813 5.47175C13.5813 5.46832 13.573 5.43855 13.5779 5.42649C13.6156 5.34672 13.66 5.27033 13.7108 5.19817C13.7695 5.11915 13.7813 5.0067 13.7813 5.0067L14.0381 4.87744L14.76 4.71143L15.2285 4.73998L15.1698 5.06403L14.8931 5.62979L14.6563 6.1452L14.386 6.46095L14.1375 6.64223H14.1374Z" fill="#543E26"/>
<path fill-rule="evenodd" clip-rule="evenodd" d="M15.3084 5.23992C15.3084 5.23992 15.0263 5.58909 14.9474 5.64288C14.9978 5.53542 15.3084 4.89573 15.4209 4.71776C15.3958 4.69762 15.3621 4.69762 15.441 4.38574C15.374 4.54345 15.3504 4.62579 15.295 4.66774C15.2397 4.70968 15.2328 4.69629 15.1954 4.69629C15.2025 4.68351 15.2054 4.66885 15.2037 4.65435C15.2037 4.65435 14.967 4.62579 14.8053 4.62579C14.6436 4.62579 14.3236 4.71311 14.1455 4.78361C14.0045 4.84238 13.9256 4.84238 13.8752 4.87923C13.8249 4.92118 13.7963 4.96656 13.7711 4.97829C13.7509 4.99002 13.6553 5.02023 13.6334 5.05211C13.6132 5.08531 13.5797 5.12261 13.5797 5.13102C13.5797 5.13943 13.5713 5.15127 13.5965 5.14275C13.6048 5.13943 13.667 5.10578 13.7375 5.06384C13.8332 5.01016 13.949 4.94807 14.033 4.91111C14.2731 4.81538 14.3487 4.8322 14.456 4.81206C14.5685 4.79191 14.7297 4.74488 14.8371 4.74488C14.9445 4.74156 15.1477 4.74488 15.1948 4.75329C15.1746 4.77011 15.1578 4.79025 15.1662 4.86075C15.1662 4.88089 15.1494 4.9027 15.133 4.95139C15.0828 5.08907 14.987 5.31739 14.9338 5.43327C14.86 5.59098 14.7761 5.72367 14.7346 5.8059C14.6931 5.88813 14.6018 6.10472 14.5114 6.2206C14.4209 6.33647 14.3737 6.40697 14.3454 6.4322C14.317 6.45744 14.1136 6.60674 14.1288 6.66052C14.1657 6.64879 14.3991 6.56092 14.5686 6.37012C14.738 6.17932 14.7718 6.06289 14.9044 5.95874C15.037 5.8546 15.1411 5.68007 15.2032 5.53575C15.2552 5.40139 15.2435 5.35945 15.3089 5.24025L15.3084 5.23992Z" fill="#806031"/>
<path fill-rule="evenodd" clip-rule="evenodd" d="M9.22926 7.84575C9.22926 7.84575 9.1923 7.99848 9.1083 8.07407C9.02607 8.148 8.87998 8.21175 8.86327 8.33604C8.84312 8.46021 9.00935 8.52241 9.00935 8.52241C9.00935 8.52241 8.9186 8.67182 8.9186 8.78427C8.9186 8.90014 8.91528 8.92194 8.92701 9.03273C8.9137 9.04129 8.90238 9.05261 8.89381 9.06593C8.89381 9.06593 8.90211 9.17339 8.98445 9.24046C9.06679 9.30753 9.13718 9.34792 9.17913 9.3311C9.18553 9.34479 9.19115 9.35883 9.19595 9.37316C9.19595 9.37316 9.25815 9.21534 9.30009 9.07766C9.34204 8.93666 9.379 8.95669 9.39572 8.767C9.41243 8.57731 9.59493 8.25159 9.59493 8.25159L9.71943 7.97325L9.51635 7.81543L9.22926 7.84564V7.84575Z" fill="#B6903C"/>
<path fill-rule="evenodd" clip-rule="evenodd" d="M9.60646 8.11951C9.56458 8.1625 9.52593 8.20851 9.49081 8.25718C9.43713 8.33111 9.39519 8.39818 9.31628 8.42685C9.23736 8.45551 9.18701 8.45529 9.19199 8.53431C9.19697 8.61333 9.2709 8.64675 9.31284 8.68704C9.35822 8.72899 9.39519 8.79948 9.37504 8.87851C9.40017 8.86677 9.44554 8.85327 9.48749 8.76263C9.52943 8.67199 9.82283 8.11962 9.82283 8.11962H9.60646V8.11951Z" fill="#685026"/>
<path fill-rule="evenodd" clip-rule="evenodd" d="M10.7637 6.8455C10.7637 6.8455 10.7889 6.77843 10.7637 6.72973C10.7385 6.67938 10.5858 6.66255 10.5102 6.60545C10.4313 6.54668 10.3355 6.50584 10.2566 6.53163C10.2684 6.50307 10.3154 6.44087 10.2768 6.42748C10.2398 6.41575 10.1022 6.47784 10.0653 6.50639C10.0283 6.53495 9.94431 6.56848 9.9276 6.58873C9.91088 6.60899 9.88222 6.6475 9.8654 6.63068C9.84858 6.61895 9.84027 6.58873 9.81172 6.60545C9.78317 6.62216 9.64571 6.73471 9.62037 6.80023C9.59502 6.86575 9.53803 7.01184 9.36681 7.17796C9.1956 7.34408 9.12167 7.45166 9.17203 7.51374C9.22238 7.57583 9.24596 7.53057 9.25437 7.58424C9.26084 7.63693 9.25799 7.69036 9.24596 7.74206C9.22582 7.82938 9.19228 7.91161 9.23755 7.92844C9.35342 7.9654 9.46598 7.89523 9.4911 7.9167C9.54146 7.96197 9.46255 8.12488 9.58174 8.15676C9.70271 8.18996 9.8219 8.1282 9.8219 8.1282L10.2617 7.89147L10.6848 7.66824L10.9013 7.24005L10.7852 6.88246L10.7631 6.8455H10.7637Z" fill="#D4B968"/>
<path fill-rule="evenodd" clip-rule="evenodd" d="M10.3489 7.86789C10.3489 7.86789 10.275 7.75545 10.3658 7.65628C10.4565 7.55712 10.5857 7.51528 10.636 7.4532C10.6264 7.44137 10.6136 7.43263 10.5991 7.42807C10.6325 7.36826 10.6835 7.32016 10.7452 7.29029C10.72 7.26516 10.6864 7.24502 10.6495 7.24502C10.5672 7.24502 10.5167 7.29538 10.4412 7.29538C10.3674 7.29538 10.359 7.25841 10.359 7.25841C10.359 7.25841 10.4833 7.24668 10.4715 7.19123C10.4597 7.13246 10.4383 7.13246 10.4383 7.13246C10.4383 7.13246 10.6783 7.03286 10.7203 6.97974C10.7622 6.92661 10.7572 6.86386 10.7656 6.83874C10.7941 6.83874 10.9603 6.75142 11.0275 6.78838C11.0947 6.82535 11.0476 6.92606 11.0476 6.92606C11.0476 6.92606 11.2509 6.77322 11.3545 6.62337C11.4452 6.63178 11.4873 6.56128 11.5537 6.56128C11.6361 6.56128 11.7653 6.67372 11.7905 6.91377C11.8073 7.05145 11.8324 7.13036 11.8073 7.37384C11.7956 7.51152 11.7989 7.80547 11.8405 7.95134C11.8689 8.06721 11.9361 8.05548 11.9361 8.05548C11.9258 8.09079 11.9054 8.1223 11.8773 8.14612C11.832 8.18807 11.827 8.29896 11.832 8.34091C11.8387 8.37157 11.8471 8.40184 11.8572 8.43155C11.8572 8.43155 11.8035 8.49364 11.79 8.53569C11.7783 8.57764 11.723 8.60619 11.6826 8.60619C11.6422 8.60619 11.6624 8.60276 11.6087 8.60619C11.5551 8.60962 11.5382 8.61792 11.5046 8.60619C11.471 8.59446 11.4458 8.58096 11.4593 8.47338C11.4711 8.36592 11.0446 8.1158 11.0446 8.1158L10.3474 7.86734L10.3489 7.86789Z" fill="#CCA849"/>
<path fill-rule="evenodd" clip-rule="evenodd" d="M9.54767 8.92882C9.54767 8.92882 9.7004 9.13201 10.3284 9.13201C10.6272 9.13201 10.7313 9.10346 10.7932 9.08664C10.8604 9.06981 11.1122 8.97087 11.3657 8.67194C11.594 8.40168 11.5437 8.29089 11.5437 8.29089L11.4109 8.27075L10.9792 8.32952L9.70206 8.87348L9.54712 8.92882H9.54767Z" fill="#585136"/>
<path fill-rule="evenodd" clip-rule="evenodd" d="M10.0169 8.97932C10.0169 8.97932 9.4729 9.10028 9.4729 8.75609C9.4729 8.4203 9.80868 8.0677 9.89268 8.00561C9.98001 7.94341 10.1882 7.8728 10.1882 7.8728H10.6902L10.7858 8.12636L10.7439 8.67364L10.0169 8.9792V8.97932Z" fill="#252211"/>
<path fill-rule="evenodd" clip-rule="evenodd" d="M10.5178 7.97535C10.5178 7.97535 10.4137 7.87962 10.177 8.00855C9.94028 8.13749 9.74882 8.40698 9.73709 8.65167C9.72536 8.86815 9.91505 9.0294 10.2105 9.03781C10.4305 9.04611 10.5632 9.02099 10.6303 9.00461C10.6135 8.98447 10.5262 8.87534 10.5262 8.87534L10.5179 7.97546L10.5178 7.97535Z" fill="#C3B378"/>
<path fill-rule="evenodd" clip-rule="evenodd" d="M10.4163 8.02896C10.4163 8.02896 10.3912 8.00882 10.3167 8.0491C10.2546 8.08231 10.164 8.17007 10.0935 8.23216C10.0481 8.26912 10.0195 8.28583 9.99385 8.31439C9.8897 8.43867 9.80238 8.64187 9.85285 8.74258C9.90332 8.8433 10.0694 8.95917 10.4925 8.88026L10.4151 8.02907L10.4163 8.02896Z" fill="#E6D89C"/>
<path fill-rule="evenodd" clip-rule="evenodd" d="M10.2782 8.23706C10.2782 8.23706 10.211 8.3412 10.211 8.50744C10.211 8.67699 10.3067 8.94725 10.6594 8.96739C10.9296 8.98422 11.1109 8.57793 11.3073 8.42011C11.4568 8.29926 11.5474 8.29583 11.5474 8.29583C11.5474 8.29583 11.3947 8.12982 10.9867 7.91478C10.5838 7.69819 10.1321 7.66964 9.88696 8.0021C10.0028 7.99369 10.3772 7.89796 10.3772 7.89796L10.5603 7.95672L10.2782 8.23717V8.23706Z" fill="#252211"/>
<path fill-rule="evenodd" clip-rule="evenodd" d="M10.8045 8.45707C10.7928 8.43195 10.7844 8.3983 10.8331 8.39C10.8818 8.3817 10.9036 8.38657 10.9204 8.4232C10.9372 8.45984 10.9536 8.49038 10.9287 8.50554C10.9036 8.51894 10.8381 8.50554 10.8044 8.45685L10.8045 8.45707ZM10.7256 8.22034C10.7256 8.22034 10.7088 8.23207 10.7172 8.20861C10.7205 8.18016 10.7424 8.1297 10.7961 8.14154C10.8498 8.15338 10.8382 8.21204 10.8293 8.22886C10.8205 8.24568 10.7756 8.27413 10.742 8.26206C10.7377 8.26097 10.7338 8.25889 10.7305 8.25599C10.7272 8.25309 10.7246 8.24944 10.7229 8.24536C10.7213 8.24127 10.7206 8.23686 10.721 8.23247C10.7214 8.22808 10.7228 8.22385 10.7252 8.22012L10.7256 8.22034Z" fill="#6F674D"/>
<path fill-rule="evenodd" clip-rule="evenodd" d="M6.18188 8.3277C6.18188 8.3277 6.31469 8.42731 6.46897 8.42343C6.6217 8.42 6.81815 8.26229 6.90879 8.16147C6.96246 8.1027 7.00839 8.04061 7.0582 7.99192C7.10025 7.94997 7.1287 7.92983 7.14884 7.90128C7.17739 7.86807 7.20761 7.80565 7.22277 7.7854C7.1858 7.81395 7.13213 7.86442 7.07668 7.89796C7.023 7.93116 6.90713 7.99358 6.86009 8.0104C6.81483 8.02722 6.34469 8.27602 6.34469 8.27602L6.18188 8.3277Z" fill="#AC924C"/>
<path fill-rule="evenodd" clip-rule="evenodd" d="M6.38501 7.08715C6.38501 7.08715 6.45883 7.0368 6.6016 7.00481C6.73927 6.97161 7.01629 6.94604 7.01629 6.94604L7.24461 7.04565L7.33525 7.38985L7.16924 7.74754L6.95774 7.88035L6.71758 7.49421L6.38556 7.08782L6.38501 7.08715Z" fill="#9F8E57"/>
<path fill-rule="evenodd" clip-rule="evenodd" d="M6.08512 7.39417L6.0061 7.45316C6.0061 7.45316 6.02636 7.4162 6.04307 7.30375C6.05978 7.19131 6.14721 6.91761 6.27482 6.75979C6.40242 6.60197 6.39911 6.61038 6.39911 6.61038C6.38736 6.60823 6.3753 6.60861 6.36371 6.6115C6.35213 6.61438 6.34129 6.61969 6.33193 6.62709C6.34875 6.58991 6.45621 6.4571 6.56368 6.3907C6.67114 6.32429 6.71309 6.30337 6.82553 6.35749C6.93797 6.41161 6.96653 6.43972 7.04887 6.4364C7.13121 6.43308 7.2016 6.34576 7.2016 6.34576C7.2016 6.34576 7.21842 6.39944 7.15633 6.52373C7.09424 6.64801 6.8491 6.90145 6.8491 6.90145L6.33868 7.25063L6.08512 7.3945V7.39417Z" fill="#EAC970"/>
<path fill-rule="evenodd" clip-rule="evenodd" d="M6.46358 7.04521C6.46358 7.04521 6.83301 7.09556 6.94545 6.99153C6.94877 7.00326 6.96227 7.00326 6.96227 7.01167C6.96137 7.01801 6.95841 7.02388 6.95386 7.02838C6.96609 7.02643 6.97844 7.02532 6.99083 7.02506C7.00561 7.02946 7.02082 7.03228 7.0362 7.03347C7.04859 7.03321 7.06094 7.03206 7.07317 7.03004C7.072 7.03839 7.06916 7.04641 7.06483 7.05364C7.06049 7.06086 7.05475 7.06714 7.04793 7.0721C7.06476 7.0721 7.08114 7.07542 7.08114 7.08881C7.08114 7.1022 7.08446 7.1426 7.06431 7.15101C7.04763 7.15562 7.02986 7.15441 7.01396 7.14758C7.01529 7.17937 7.02392 7.21042 7.03919 7.23833C7.07239 7.30042 7.14322 7.37114 7.2384 7.35078C7.2384 7.35078 7.28865 7.47163 7.07715 7.74024C7.04871 7.7772 7.01838 7.82756 6.98153 7.8695C6.96697 7.90124 6.95584 7.93445 6.94833 7.96855C6.94833 7.96855 7.30602 7.83088 7.4084 7.5169C7.51254 7.20126 7.53268 6.89071 7.51254 6.6003C7.50911 6.51796 7.49572 6.4593 7.47558 6.41725C7.42522 6.3131 7.28411 6.32992 7.22711 6.38869C7.14477 6.47103 7.0071 6.67578 6.81574 6.81678C6.62096 6.95777 6.61265 6.98279 6.46313 7.04521H6.46358Z" fill="#D7BC6B"/>
<path fill-rule="evenodd" clip-rule="evenodd" d="M6.02047 7.49848C6.02047 7.49848 5.94997 7.54042 5.91301 7.69769C5.87604 7.85883 5.94621 8.05527 5.98683 8.11736C6.02744 8.17945 6.11963 8.34911 6.31088 8.35752C6.35821 8.35727 6.40502 8.34756 6.44855 8.32897C6.51532 8.29836 6.57794 8.25942 6.63493 8.21309C6.71727 8.15101 6.78434 8.09733 6.77593 8.09224C6.75578 8.08383 6.26893 7.68087 6.26893 7.68087L6.08588 7.47656L6.02036 7.4987L6.02047 7.49848Z" fill="#585136"/>
<path fill-rule="evenodd" clip-rule="evenodd" d="M6.47959 8.16658C6.47959 8.16658 6.57864 8.15828 6.63741 8.12131C6.69618 8.08435 6.29321 7.68481 6.29321 7.68481L6.32177 8.11644L6.47959 8.16658Z" fill="#453A25"/>
<path fill-rule="evenodd" clip-rule="evenodd" d="M6.05226 7.46827C6.05226 7.46827 6.00191 7.56401 6.00191 7.58924C5.9935 7.67147 6.01873 7.93 6.03887 8.01223C6.05901 8.09956 6.16814 8.23214 6.30925 8.23214C6.39646 8.23214 6.51742 8.17847 6.51742 8.16507C6.51742 8.14825 6.39314 8.13187 6.3596 8.06934C6.33946 8.03614 6.33105 7.95358 6.3264 7.87013C6.32308 7.81645 6.32308 7.75769 6.34322 7.73732C6.3886 7.68696 6.3969 7.54254 6.3969 7.54254L6.55804 7.24316H6.3461L6.09255 7.40098L6.05226 7.46827Z" fill="#84754B"/>
<path fill-rule="evenodd" clip-rule="evenodd" d="M5.99048 7.5606C5.99048 7.5606 6.15649 7.34069 6.30612 7.29022C6.45575 7.23976 6.52271 7.27008 6.52271 7.27008L6.43539 7.49342L6.3111 7.6311L6.31951 7.7016C6.31951 7.7016 6.29926 7.88797 6.42354 8.01724C6.54783 8.1465 6.64013 8.14152 6.69392 8.14152C6.74771 8.14152 6.9021 8.09615 6.98101 7.90977C7.0515 7.73524 7.11027 7.51135 6.96927 7.2869C6.83149 7.06356 6.58812 7.05493 6.54108 7.05493C6.49404 7.05493 6.12473 7.07341 5.99048 7.56027V7.5606Z" fill="#252211"/>
<path fill-rule="evenodd" clip-rule="evenodd" d="M10.2532 8.30755C10.1911 8.27899 10.2499 8.10446 10.312 8.05067C10.3741 7.99688 10.453 7.93491 10.5908 7.92639C10.641 7.92307 10.6897 7.95494 10.6814 7.98858C10.6697 8.05067 10.5824 8.13799 10.5035 8.20008C10.3943 8.28574 10.3237 8.33942 10.2532 8.30755Z" fill="#F7F7E7"/>
<path fill-rule="evenodd" clip-rule="evenodd" d="M6.89482 7.35568C6.94019 7.35236 6.99896 7.38888 7.01069 7.43802C7.02242 7.4917 6.98214 7.59916 6.89482 7.59916C6.82432 7.59916 6.78735 7.51184 6.78735 7.48672C6.78815 7.46606 6.79392 7.4459 6.80418 7.42795C6.8075 7.42286 6.81591 7.36409 6.89482 7.35568Z" fill="#F8F6DE"/>
<path fill-rule="evenodd" clip-rule="evenodd" d="M6.23976 7.39429C6.23976 7.39429 6.12389 7.44796 6.07021 7.5603C6.03186 7.64325 6.02025 7.73607 6.03701 7.82591C6.04542 7.86786 6.08736 7.97189 6.11592 8.00886C6.14447 8.04582 6.1831 8.07106 6.21165 8.06762C6.2402 8.06419 6.29886 7.98871 6.29886 7.94345C6.29886 7.89818 6.30229 7.70672 6.35763 7.60257C6.40633 7.49854 6.24009 7.3944 6.24009 7.3944L6.23976 7.39429Z" fill="#D4C38B"/>
<path fill-rule="evenodd" clip-rule="evenodd" d="M6.25761 7.38595C6.23747 7.39768 6.20393 7.4145 6.21223 7.4363C6.22064 7.45645 6.29114 7.4695 6.31638 7.51864C6.34493 7.569 6.34493 7.62268 6.33652 7.64791C6.35845 7.63749 6.37835 7.62325 6.39529 7.60585C6.43225 7.56391 6.47752 7.50691 6.51614 7.50691C6.54138 7.50691 6.5665 7.51864 6.59007 7.51864C6.62704 7.51864 6.66389 7.50691 6.66898 7.46829C6.67728 7.41793 6.59848 7.37255 6.55311 7.38097C6.56152 7.34776 6.57325 7.29874 6.53628 7.26509C6.49932 7.23145 6.38355 7.29032 6.35832 7.30715C6.33309 7.32397 6.25761 7.38606 6.25761 7.38606V7.38595Z" fill="#E2D59D"/>
<path fill-rule="evenodd" clip-rule="evenodd" d="M8.92441 10.9132L9.17287 10.8398L9.24337 10.8902C9.24337 10.8902 9.29361 10.9977 9.37263 11.0111C9.3474 11.0647 9.28188 11.1107 9.28531 11.1487C9.28874 11.1868 9.32228 11.2159 9.32228 11.2159C9.32228 11.2159 9.09894 11.5852 9.53887 11.9574C9.43472 11.9994 9.30214 12.057 9.23164 12.0902C9.28188 12.102 9.38935 12.1234 9.43472 12.1642C9.4801 12.2049 9.4801 12.2178 9.52204 12.2431C9.56399 12.2683 9.58911 12.3018 9.58081 12.3169C9.55226 12.3001 9.45652 12.2498 9.43981 12.2967C9.4231 12.3437 9.02512 12.3253 9.02512 12.3253L8.35355 12.4546C8.35355 12.4546 8.37868 12.3874 8.30818 12.3253C8.22595 12.2515 8.12523 12.3286 8.01777 12.2464C7.87677 12.1389 7.87168 12.0146 7.82642 11.9677C7.87168 11.9392 7.96409 11.8972 8.184 11.8681C8.17559 11.8513 8.14704 11.8009 8.16386 11.7557C8.184 11.6969 8.26789 11.6599 8.24277 11.5897C8.27973 11.5812 8.29645 11.5812 8.38886 11.4654C8.47618 11.3495 8.52986 11.3244 8.59704 11.316C8.66421 11.3075 8.7045 11.316 8.82878 11.2001C8.916 11.1179 8.88755 11.0474 8.88755 11.0474C8.88755 11.0474 8.94455 11.0289 8.92452 10.913L8.92441 10.9132Z" fill="#CBAC5A"/>
<path fill-rule="evenodd" clip-rule="evenodd" d="M8.19125 10.9507C8.19457 10.9339 8.20807 10.9255 8.29871 10.9339C8.38935 10.9423 8.96353 10.8802 9.11969 10.8718C9.27751 10.86 9.8332 10.8683 10.1036 10.9255C10.3739 10.9826 10.6475 11.0497 10.7801 11.0833C10.9129 11.1202 10.9548 11.1335 10.9497 11.1503C10.9464 11.1672 10.9165 11.1835 10.8993 11.1789C10.8826 11.1756 10.4427 11.0412 10.3068 11.0129C10.1709 10.9846 9.70061 10.9087 9.44352 10.9133C9.20346 10.9167 9.10773 10.91 8.90465 10.9334C8.70145 10.9587 8.36567 10.9922 8.26495 10.9788C8.16535 10.9671 8.18593 10.9671 8.19102 10.9502L8.19125 10.9507Z" fill="#D6BC6F"/>
<path fill-rule="evenodd" clip-rule="evenodd" d="M9.542 12.2665C9.542 12.2665 9.88619 12.4529 10.0105 12.6812C10.1011 12.8507 9.9568 12.9347 9.9568 12.9347C9.9568 12.9347 10.1516 12.9347 10.1264 13.0422C10.1146 13.1093 9.79057 13.2905 9.57398 13.3863C9.35407 13.482 9.36248 13.477 9.25502 13.4937C9.15088 13.5106 8.86545 13.4605 8.80668 13.5441C8.74791 13.6277 8.77348 13.7138 8.78986 13.7271C8.80668 13.7389 8.9427 13.7557 8.9427 13.7557C8.9427 13.7557 8.91415 13.8346 8.63215 13.843C8.35015 13.8514 8.27955 13.8715 8.26272 13.9018C8.2459 13.9302 8.3164 13.9135 8.44578 13.935C8.57504 13.9551 8.75633 13.9682 8.75633 13.9682C8.75633 13.9682 8.69756 14.0186 8.54483 14.0588C8.37019 14.1041 8.09649 14.1462 8.01426 14.1965C8.05621 14.2251 8.1184 14.267 8.14707 14.2703C8.07657 14.2872 7.97741 14.3241 7.96069 14.3375C7.98582 14.3543 8.01946 14.3745 8.01946 14.3745C8.01946 14.3745 7.87835 14.544 7.79612 14.5861C7.71389 14.6281 7.24043 14.8479 7.07752 14.806C6.67124 14.6985 6.62088 14.2536 6.52183 14.2201C6.37242 14.1697 6.30192 14.2703 6.16922 14.1998C6.22799 14.1579 6.25998 14.1328 6.32206 14.1042C6.25488 14.071 5.90737 13.8507 5.90737 13.8507C5.87103 13.7715 5.83069 13.6941 5.78651 13.619C5.71934 13.5031 5.6205 13.3486 5.54635 13.2126C5.38521 12.9138 5.3768 12.7761 5.23071 12.6066C5.25595 12.5734 5.34316 12.578 5.34316 12.578L6.56721 12.981L8.73762 13.0439L9.30206 12.238L9.54211 12.2666L9.542 12.2665Z" fill="#DFC677"/>
<path fill-rule="evenodd" clip-rule="evenodd" d="M6.32837 13.4953C6.34147 13.5099 6.35673 13.5223 6.37363 13.5323C6.41569 13.5608 6.47778 13.5945 6.51972 13.6447C6.53655 13.6196 6.57849 13.5742 6.65253 13.6447C6.72657 13.7152 6.81854 13.665 6.87576 13.6817C6.93453 13.7019 6.93785 13.7102 6.93785 13.7102C6.93785 13.7102 6.97105 13.6817 7.04531 13.6515C7.09069 13.6346 7.14436 13.6229 7.20313 13.6062C7.25681 13.5945 7.31558 13.5776 7.35597 13.5776C7.39294 13.6028 7.52552 13.7436 8.05775 13.5357C8.55977 13.3409 8.67553 13.3191 8.75953 13.3492C8.76794 13.3291 8.77635 13.2904 8.90562 13.2955C8.90562 13.2419 8.79816 13.0588 8.79816 13.0588L8.2055 12.8557H7.88134L6.90929 13.0337L6.37065 13.341L6.3287 13.496L6.32837 13.4953Z" fill="#C4A859"/>
<path fill-rule="evenodd" clip-rule="evenodd" d="M6.00415 13.1547C6.00415 13.1547 6.01588 13.2453 6.15024 13.3411C6.28305 13.4367 6.32477 13.4938 6.32477 13.4938C6.32477 13.4938 6.35 13.4606 6.37015 13.4267C6.39029 13.3898 6.40711 13.3478 6.44065 13.3361C6.50783 13.3075 6.66055 13.3612 6.6942 13.3528C6.72275 13.3445 6.71434 13.2857 6.74456 13.2857C6.81505 13.2823 6.86032 13.331 6.88555 13.331C6.91079 13.331 6.97276 13.3277 6.98118 13.3143C6.98959 13.3009 6.99291 13.1615 7.08864 13.0943C7.19278 13.0205 7.32039 13.0523 7.35426 13.0692C7.35426 13.0943 7.35758 13.1565 7.42475 13.1598C7.49193 13.1631 7.49857 13.1514 7.55756 13.1715C7.61655 13.1917 7.68683 13.1682 7.7187 13.2671C7.74726 13.2588 7.81444 13.2504 7.79761 13.1547C7.83082 13.1296 7.85981 13.1128 7.93042 13.0137C7.94724 12.9886 7.97569 12.96 7.9976 12.9231C8.05637 12.9231 8.12687 12.9113 8.22083 12.9936C8.19227 13.0137 8.17545 13.0268 8.16715 13.0472C8.19173 13.0716 8.21416 13.098 8.23422 13.1261C8.25945 13.1593 8.27628 13.2001 8.30815 13.2085C8.37865 13.2286 8.49452 13.2001 8.62379 13.2085C8.74808 13.2169 8.85211 13.2622 8.89749 13.2907C8.91431 13.2824 8.91431 13.279 8.95625 13.2874C8.9982 13.2958 9.03007 13.2991 8.98481 13.2455C9.00993 13.2572 9.03848 13.2824 9.06372 13.2572C9.08895 13.232 9.10898 13.1951 9.17948 13.1867C9.24998 13.1783 9.27521 13.19 9.30377 13.1162C9.34073 13.0255 9.21313 13.0255 9.21313 13.0255C9.21313 13.0255 9.27189 12.9718 9.33741 12.9013C9.41632 12.8274 9.50696 12.7317 9.52877 12.6142C9.56573 12.3976 9.35423 12.3691 9.35423 12.3691L8.3284 12.6848L7.07425 12.6226L6.00481 13.1548L6.00415 13.1547Z" fill="#927D49"/>
<path fill-rule="evenodd" clip-rule="evenodd" d="M5.08195 10.1913C5.08195 10.1913 5.04875 10.2333 5.02827 10.3323C5.0078 10.4314 5.01654 10.4196 4.99972 10.4901C4.9829 10.5606 4.77627 11.2624 4.85374 11.4992C4.93121 11.7359 5.06535 11.8232 5.14924 12.0146C5.16606 12.0565 5.18244 12.0817 5.19118 12.1187C5.21974 12.2429 5.19461 12.3386 5.22815 12.4629C5.23988 12.5048 5.2702 12.5535 5.31547 12.6039C5.41508 12.7079 5.57743 12.807 5.64749 12.8775C5.74643 12.9816 5.88754 13.1932 6.06716 13.2133C6.1629 13.225 6.29891 13.1847 6.41136 13.1176C6.51096 13.0554 6.5725 12.9682 6.67697 12.9184C6.75079 12.8815 6.8297 12.8681 6.9002 12.8513C7.04629 12.8227 7.17899 12.8181 7.2579 12.8344C7.37875 12.8597 7.66418 12.947 7.82233 12.947C7.94591 12.945 8.0688 12.9281 8.18833 12.8966C8.42838 12.8261 8.71879 12.7052 8.91025 12.6515C9.0227 12.6183 9.11334 12.6095 9.20575 12.5894C9.36357 12.5524 9.49616 12.5021 9.57175 12.4063C9.52139 12.3476 9.4593 12.2569 9.12341 12.2603C8.74236 12.2687 8.30244 12.4802 8.08585 12.5138C7.86926 12.5475 7.7753 12.5759 7.53348 12.4886C7.29641 12.4004 7.28856 12.342 7.28856 12.342C7.28856 12.342 7.03965 12.168 6.93551 11.7242C6.83136 11.2804 6.93551 10.957 7.20588 10.6496C7.27638 10.5707 7.25956 10.5002 7.25956 10.5002C7.25956 10.5002 7.43752 10.2602 7.38883 10.0354C7.33515 9.81205 6.99096 9.85743 6.99096 9.85743L5.08206 10.1913H5.08195Z" fill="#6E6342"/>
<path fill-rule="evenodd" clip-rule="evenodd" d="M5.36852 10.9386C5.35372 10.9664 5.34675 10.9978 5.34837 11.0292C5.3517 11.0745 5.3652 11.1333 5.5011 11.266C5.61698 11.3817 5.59175 11.511 5.59175 11.511C5.59175 11.511 5.65007 11.5227 5.80833 11.4487C5.93262 11.3899 5.97434 11.4941 5.97434 11.4941C6.01052 11.4751 6.04974 11.4626 6.09022 11.4571C6.1269 11.4537 6.1624 11.4424 6.19425 11.4239C6.19425 11.4239 6.34034 11.5733 6.46795 11.6438C6.58382 11.706 6.651 11.748 6.70811 11.706C6.76179 11.669 6.76179 11.5935 6.75835 11.5599C6.74504 11.529 6.72818 11.4997 6.70811 11.4726C6.67114 11.4189 6.61238 11.3567 6.6085 11.3066C6.60009 11.1908 6.69582 11.053 6.67557 11.0195C6.65532 10.986 6.57995 10.9776 6.39357 11.0447C6.20056 11.1085 5.36774 10.9389 5.36774 10.9389L5.36852 10.9386Z" fill="#39331F"/>
<path fill-rule="evenodd" clip-rule="evenodd" d="M5.8097 11.6891C5.8097 11.6891 5.71408 11.5984 5.74761 11.1585C5.78821 11.1579 5.82874 11.1618 5.86846 11.1702C5.86846 11.1702 5.92059 11.5111 5.8097 11.6891Z" fill="#292311"/>
<path fill-rule="evenodd" clip-rule="evenodd" d="M5.12801 9.8554C5.14135 9.84553 5.15373 9.83441 5.16498 9.8222C5.13177 9.88429 4.97849 10.1328 5.10278 10.524C5.22706 10.9134 5.53927 11.2038 5.92375 11.2174C6.30823 11.2309 6.51032 11.0427 6.74141 10.7607C6.83205 10.6483 6.93619 10.5072 7.0285 10.4115C7.16617 10.262 7.27364 10.2201 7.27364 10.0758C7.27364 9.78026 6.97139 9.64756 6.52648 9.51497C6.08157 9.38238 5.68027 9.39876 5.47209 9.48952C5.26901 9.58846 5.18169 9.6926 5.1279 9.85551L5.12801 9.8554Z" fill="#252211"/>
<path fill-rule="evenodd" clip-rule="evenodd" d="M6.55526 11.8215L6.58847 11.8046C6.58847 11.8046 6.59677 11.6718 6.65055 11.6754C6.70423 11.6838 6.72946 11.7544 6.72437 11.7795C6.72105 11.8046 6.70766 11.8467 6.65387 11.8416C6.58337 11.8433 6.55493 11.8215 6.55493 11.8215H6.55526Z" fill="#3F3824"/>
<path fill-rule="evenodd" clip-rule="evenodd" d="M6.40649 11.2574C6.40649 11.2574 6.4397 11.2457 6.48031 11.286C6.51352 11.286 6.65828 11.2692 6.70365 11.2977C6.74903 11.3263 6.76242 11.3514 6.76242 11.3514C6.76242 11.3514 6.59287 11.3884 6.50046 11.3514C6.40649 11.3195 6.40649 11.2574 6.40649 11.2574Z" fill="#2D2815"/>
<path fill-rule="evenodd" clip-rule="evenodd" d="M7.15239 11.2825C7.15239 11.2741 7.06175 11.212 6.96602 11.1918C6.9492 11.1885 6.94577 11.2002 6.93282 11.2002C6.92441 11.1969 6.92109 11.1716 6.92109 11.1716L6.86663 11.2003C6.86663 11.2003 6.85822 11.212 6.88678 11.2335C6.9119 11.2536 6.95396 11.2705 6.96569 11.304C6.97742 11.3375 6.97742 11.3493 6.98251 11.3544C6.98583 11.3577 7.0446 11.3544 7.07315 11.3375C7.1017 11.3207 7.15549 11.2933 7.15206 11.2822L7.15239 11.2825Z" fill="#82764F"/>
<path fill-rule="evenodd" clip-rule="evenodd" d="M6.30493 11.6235C6.30493 11.6235 6.32164 11.5077 6.4342 11.5026C6.54996 11.4942 6.57188 11.6067 6.57188 11.6067L6.5047 11.6739C6.5047 11.6722 6.45434 11.6017 6.30548 11.6235H6.30493Z" fill="#2D2816"/>
<path fill-rule="evenodd" clip-rule="evenodd" d="M7.03577 11.1248C7.03577 11.1248 6.97358 11.192 6.83601 11.2121C6.82428 11.1953 6.79904 11.1618 6.83601 11.1081C6.87297 11.0544 6.91492 11.0376 6.95686 11.0543C6.97537 11.0573 6.99263 11.0655 7.00662 11.078C7.0206 11.0905 7.03072 11.1067 7.03577 11.1248Z" fill="#574F35"/>
<path fill-rule="evenodd" clip-rule="evenodd" d="M7.28845 11.2072C7.29188 11.1904 7.28015 11.1871 7.28845 11.1787C7.29675 11.1703 7.34224 11.1536 7.35065 11.1619C7.35397 11.1653 7.35065 11.1787 7.35065 11.1951C7.35065 11.2115 7.35065 11.2283 7.34224 11.2403C7.33051 11.2572 7.29697 11.2656 7.28015 11.2606C7.26333 11.2556 7.26001 11.232 7.26001 11.2274C7.26831 11.2241 7.28845 11.2157 7.28845 11.2072ZM7.5751 11.026C7.5751 11.0176 7.60365 11.0007 7.62047 11.0007C7.6456 11.0007 7.6456 11.0209 7.64903 11.026C7.65733 11.0293 7.65733 11.0225 7.66574 11.0377C7.67415 11.0529 7.68599 11.0796 7.67747 11.0965C7.66895 11.1133 7.63552 11.1249 7.62722 11.1216C7.61549 11.1132 7.57853 11.0377 7.5751 11.026Z" fill="#82764F"/>
<path fill-rule="evenodd" clip-rule="evenodd" d="M7.00024 11.2457C7.00024 11.2457 7.0375 11.2541 7.08825 11.2965C7.0713 11.3083 7.04586 11.3218 7.04586 11.3218C7.04586 11.3218 7.04252 11.2829 7.00024 11.2456V11.2457Z" fill="#6E6342"/>
<path fill-rule="evenodd" clip-rule="evenodd" d="M6.91563 10.8762C6.90722 10.8679 6.94076 10.8478 6.9609 10.8511C6.98104 10.8544 6.98945 10.8679 7.01126 10.8713C7.03306 10.8746 7.03649 10.8629 7.04446 10.8544C7.05243 10.846 7.08142 10.8511 7.0864 10.8544C7.0895 10.8581 7.09232 10.8621 7.09481 10.8662C7.09517 10.8598 7.09683 10.8535 7.09971 10.8478C7.10258 10.8421 7.10661 10.8371 7.11153 10.833C7.11797 10.8282 7.12539 10.825 7.13325 10.8236C7.14111 10.8221 7.14919 10.8225 7.1569 10.8246C7.16022 10.8363 7.17704 10.8782 7.17372 10.8866C7.1704 10.8951 7.12005 10.9069 7.11153 10.8984C7.11994 10.9186 7.1569 10.9606 7.16188 10.9689C7.16686 10.9772 7.12492 10.9974 7.10821 10.9941C7.08474 10.9925 6.94031 10.9084 6.91519 10.8766L6.91563 10.8762ZM7.13554 10.5976C7.13243 10.5891 7.12649 10.582 7.11872 10.5774C7.10699 10.5741 7.06836 10.5774 7.06836 10.5976C7.06836 10.6177 7.10157 10.7304 7.13886 10.789C7.18092 10.8478 7.20936 10.8964 7.23791 10.9099C7.24688 10.914 7.25706 10.9145 7.2664 10.9114C7.27575 10.9083 7.28356 10.9017 7.28827 10.8931C7.29159 10.8847 7.3 10.8226 7.29668 10.6765C7.29336 10.5304 7.28827 10.3894 7.27986 10.381C7.27145 10.3726 7.23791 10.3727 7.22618 10.3894C7.21445 10.4061 7.13886 10.5724 7.13543 10.5976H7.13554Z" fill="#585136"/>
<path fill-rule="evenodd" clip-rule="evenodd" d="M6.98683 11.4572C6.98683 11.4572 6.92806 11.4202 6.87095 11.4455C6.81728 11.4707 6.8206 11.5697 6.8206 11.5697C6.83267 11.5745 6.84572 11.5762 6.85861 11.5747C6.87149 11.5732 6.88382 11.5687 6.89453 11.5613C6.93149 11.5362 6.97842 11.4943 6.98683 11.4573V11.4572Z" fill="#574F35"/>
<path fill-rule="evenodd" clip-rule="evenodd" d="M7.0979 11.5899C7.09458 11.5567 7.0647 11.5567 7.0647 11.5395C7.06675 11.5313 7.07151 11.524 7.07819 11.5189C7.08487 11.5137 7.0931 11.5109 7.10155 11.511C7.11837 11.511 7.13475 11.5311 7.15534 11.5442C7.17548 11.5559 7.20569 11.5774 7.20902 11.6029C7.21234 11.6285 7.17581 11.6986 7.1352 11.6986C7.09458 11.6986 7.10664 11.623 7.09823 11.5894L7.0979 11.5899ZM7.42195 11.5445C7.42195 11.5445 7.35477 11.5646 7.35975 11.5445C7.36473 11.5244 7.38001 11.5194 7.40181 11.5194C7.41289 11.5078 7.42779 11.5006 7.44375 11.4991C7.45289 11.4987 7.46186 11.5017 7.46888 11.5075C7.46888 11.5075 7.51425 11.4874 7.52764 11.4991C7.54104 11.5109 7.53108 11.5109 7.53938 11.5244C7.54995 11.5393 7.55688 11.5566 7.55963 11.5747C7.55963 11.5881 7.50927 11.6167 7.46888 11.6117C7.42195 11.6016 7.43025 11.5529 7.42195 11.5445ZM7.81307 11.4689C7.81307 11.4689 7.83321 11.4806 7.8165 11.4941C7.80477 11.5059 7.746 11.5273 7.69554 11.5311C7.64518 11.5311 7.59991 11.5394 7.59991 11.5227C7.59991 11.506 7.64186 11.4723 7.66698 11.4639C7.67202 11.4576 7.67842 11.4525 7.6857 11.449C7.69299 11.4456 7.70096 11.4438 7.70904 11.4438C7.72918 11.4438 7.80798 11.4354 7.82989 11.4321C7.85004 11.4286 7.86686 11.4404 7.85502 11.4572C7.85004 11.4689 7.81307 11.4689 7.81307 11.4689ZM7.92895 10.9505C7.92895 10.9505 7.90371 11.0042 7.87527 11.0042C7.84672 11.0009 7.84672 10.9925 7.84672 10.984C7.84672 10.9723 7.87527 10.9421 7.87184 10.9337C7.86354 10.9337 7.84328 10.9337 7.84672 10.9135C7.84672 10.8967 7.87527 10.8766 7.90039 10.8803C7.91938 10.8647 7.94301 10.8559 7.96757 10.8552C7.99613 10.8552 8.02125 10.8635 8.02125 10.8803C8.02125 10.8972 7.98805 10.934 7.97587 10.9425C7.96248 10.9559 7.94566 10.9647 7.92895 10.9508V10.9505ZM7.54613 11.9427C7.54613 11.9427 7.51292 11.9461 7.51292 11.9628C7.51292 11.9713 7.52123 11.9713 7.53307 11.9663C7.53989 11.9659 7.54665 11.9647 7.55321 11.9628C7.55653 11.9663 7.55653 11.983 7.58176 11.983C7.60248 11.9802 7.62245 11.9733 7.64053 11.9628C7.66067 11.9545 7.6775 11.946 7.6775 11.9296C7.66908 11.9011 7.65226 11.8876 7.62714 11.8876C7.61427 11.8868 7.60143 11.8897 7.59017 11.896C7.59017 11.896 7.58176 11.8792 7.55321 11.896C7.52466 11.9128 7.52798 11.9128 7.53639 11.9212C7.55144 11.9346 7.54646 11.9434 7.54646 11.9434L7.54613 11.9427ZM7.35643 12.1173C7.35643 12.1089 7.39838 12.0921 7.41011 12.0972C7.42184 12.1005 7.45537 12.1643 7.45537 12.171C7.45537 12.1794 7.41343 12.1996 7.39661 12.1996C7.37978 12.1996 7.35134 12.171 7.35134 12.1664C7.35134 12.1631 7.37148 12.1581 7.37148 12.1546C7.37646 12.1463 7.35643 12.1261 7.35643 12.1177V12.1173ZM7.22362 11.8722C7.23204 11.8689 7.23204 11.8605 7.24377 11.8521C7.24744 11.8496 7.25162 11.848 7.256 11.8475C7.26037 11.8469 7.26482 11.8473 7.269 11.8487C7.27196 11.8435 7.27606 11.8389 7.281 11.8354C7.28594 11.8319 7.29159 11.8295 7.29755 11.8285C7.3177 11.8252 7.33452 11.8285 7.33076 11.8369C7.33076 11.8621 7.34758 11.8788 7.34758 11.899C7.34758 11.9191 7.33585 11.9444 7.2939 11.9612C7.25196 11.9729 7.19485 11.9729 7.18644 11.9696C7.17803 11.9663 7.16962 11.9326 7.17803 11.9158C7.18644 11.899 7.2099 11.8806 7.2234 11.8722H7.22362Z" fill="#82764F"/>
<path fill-rule="evenodd" clip-rule="evenodd" d="M7.27852 11.8837C7.27852 11.8837 7.24974 11.9006 7.24974 11.9091C7.24719 11.9173 7.24606 11.9258 7.2464 11.9344C7.2464 11.9394 7.28365 11.9311 7.28867 11.9259C7.29034 11.9226 7.27852 11.8925 7.27852 11.8837Z" fill="#6E6342"/>
<path fill-rule="evenodd" clip-rule="evenodd" d="M7.02747 11.8049C7.04419 11.8084 7.07274 11.8049 7.09454 11.8133C7.11137 11.8217 7.1231 11.8386 7.10627 11.8587C7.08945 11.8789 7.07307 11.9091 7.03578 11.904C6.99383 11.9007 6.95355 11.8788 6.95355 11.862C6.95284 11.8514 6.95426 11.8407 6.95772 11.8306C6.96117 11.8205 6.9666 11.8112 6.97369 11.8033C6.99051 11.7899 6.99881 11.7983 7.02736 11.8049H7.02747Z" fill="#585136"/>
<path fill-rule="evenodd" clip-rule="evenodd" d="M7.00719 11.8217C7.00719 11.8217 6.95351 11.8636 6.94001 11.8839C6.92319 11.904 6.84096 12.008 6.81584 12.0298C6.82418 12.0151 6.83369 12.0011 6.84428 11.9879C6.81108 12.0091 6.78619 12.0411 6.77378 12.0785C6.75364 12.1407 6.88633 12.1743 6.97355 12.1995C7.06076 12.2247 7.09451 12.2327 7.09451 12.2327C7.0624 12.1844 7.03484 12.1333 7.01217 12.08C6.97897 12.0011 6.96181 11.9926 6.98362 11.9557C7.00044 11.9187 7.02567 11.8936 7.02567 11.865C7.0156 11.8385 7.00719 11.8217 7.00719 11.8217Z" fill="#574F35"/>
<path fill-rule="evenodd" clip-rule="evenodd" d="M5.09422 11.9543C5.10643 11.9565 5.11896 11.9565 5.13118 11.9543C5.1563 11.9509 5.41827 11.8547 5.69196 11.8719C5.89685 11.8843 6.09993 11.9177 6.29801 11.9716C6.6422 12.0622 7.07029 12.2418 7.34731 12.3443C7.42112 12.3727 7.49339 12.4232 7.54652 12.4432C7.75813 12.5256 7.76643 12.5256 7.89071 12.5474C8.0368 12.5675 8.18621 12.5188 8.34237 12.4853C8.53372 12.4432 8.8611 12.4231 9.14818 12.3812C9.24102 12.3683 9.33258 12.3475 9.42188 12.3191C9.42188 12.3191 9.19356 12.5474 8.64617 12.6296C8.42491 12.6632 8.20007 12.666 7.97803 12.638C7.80339 12.6212 7.68763 12.596 7.6003 12.5708C7.50125 12.5423 7.29806 12.4667 7.04793 12.4048C6.87329 12.3595 6.67851 12.3259 6.45528 12.284C5.90457 12.1832 5.30693 12.0674 5.09399 11.955L5.09422 11.9543Z" fill="#252211"/>
<path fill-rule="evenodd" clip-rule="evenodd" d="M4.47449 10.9167C4.34168 11.0292 4.20079 11.1367 4.06322 11.2407L3.64853 11.5593C3.50753 11.6634 3.36985 11.7708 3.22875 11.875C3.08764 11.9791 2.94675 12.078 2.79712 12.1738C2.92993 12.0613 3.07081 11.9572 3.21181 11.8548C3.35281 11.7524 3.49901 11.6521 3.63503 11.5483L4.04972 11.2292C4.19238 11.1251 4.33006 11.0177 4.47449 10.917V10.9167ZM3.74083 12.092C3.74083 12.092 3.89024 11.9677 4.07661 11.7932C4.30825 11.5767 4.59202 11.2996 4.68266 11.2493L3.74072 12.0921L3.74083 12.092Z" fill="#CFB66C"/>
<path fill-rule="evenodd" clip-rule="evenodd" d="M3.74243 12.0918C3.81636 12.018 3.89527 11.9458 3.97418 11.8752L4.09504 11.7712C4.132 11.738 4.17406 11.7007 4.21091 11.6637C4.28473 11.5899 4.357 11.5109 4.43082 11.4354C4.46741 11.3975 4.50609 11.3616 4.5467 11.3279C4.56699 11.31 4.58954 11.2947 4.61376 11.2826C4.63402 11.2708 4.65582 11.2494 4.68426 11.2456C4.66755 11.2708 4.64741 11.2826 4.63059 11.3044C4.61044 11.3212 4.59362 11.3413 4.57691 11.3581C4.53994 11.395 4.498 11.4285 4.46103 11.4622C4.38212 11.5294 4.29989 11.595 4.22098 11.6653C4.14207 11.7356 4.06825 11.8114 3.98923 11.8819C3.90368 11.9541 3.82477 12.0246 3.74243 12.0921V12.0918ZM4.74646 11.4202C4.74646 11.4202 4.19918 11.9559 4.08663 12.0431L4.74646 11.4202Z" fill="#CFB66C"/>
<path fill-rule="evenodd" clip-rule="evenodd" d="M4.74602 11.4204C4.69678 11.4774 4.644 11.5312 4.58797 11.5816L4.42196 11.7394C4.36829 11.793 4.31782 11.8468 4.26082 11.9005C4.20206 11.9509 4.14838 12.0001 4.08618 12.0466L4.24732 11.8888C4.30111 11.8351 4.35988 11.7898 4.41698 11.7361L4.57812 11.5782C4.63346 11.5229 4.68725 11.4691 4.74602 11.4204ZM4.77114 11.7108C4.72069 11.8516 4.66125 11.989 4.59318 12.1222C4.45218 12.4043 4.24068 12.7568 4.14827 12.9365L4.77114 11.7108Z" fill="#CFB66C"/>
<path fill-rule="evenodd" clip-rule="evenodd" d="M4.77209 11.7108C4.77209 11.7729 4.75527 11.8267 4.73512 11.8804C4.71549 11.9341 4.6931 11.9868 4.66806 12.0382C4.64282 12.0885 4.61427 12.1423 4.58571 12.191C4.55716 12.2397 4.52363 12.29 4.49839 12.3404L4.32884 12.6393C4.27007 12.7389 4.21297 12.839 4.15088 12.9348C4.19282 12.8273 4.24993 12.7266 4.30372 12.6275C4.36249 12.5279 4.41616 12.4283 4.46973 12.3253C4.49588 12.2739 4.51941 12.2213 4.54023 12.1676C4.56535 12.1138 4.59047 12.0634 4.61073 12.0147C4.63585 11.961 4.65599 11.9106 4.68123 11.862C4.70967 11.8099 4.73324 11.7595 4.77187 11.7108H4.77209Z" fill="#CFB66C"/>
<path fill-rule="evenodd" clip-rule="evenodd" d="M5.36957 13.0876C5.36957 13.0876 5.20356 13.3076 5.22016 13.5862C5.26543 13.4403 5.32253 13.2169 5.36957 13.0876ZM5.52739 13.3081C5.52739 13.3081 5.46862 13.9057 5.41993 14.1996C5.48877 13.8599 5.50216 13.8885 5.52739 13.3081ZM6.62704 14.2349C6.62704 14.2349 6.37858 14.9653 6.37349 15.1683C6.42728 14.9596 6.53131 14.5332 6.62704 14.2343V14.2349Z" fill="#DEC270"/>
<path fill-rule="evenodd" clip-rule="evenodd" d="M7.20728 13.0424C7.20728 13.0424 7.61024 13.7072 7.91249 14.2746C7.8307 13.9891 7.64255 13.4654 7.20728 13.0424Z" fill="#CBAF59"/>
<path fill-rule="evenodd" clip-rule="evenodd" d="M8.28931 14.021C8.51055 14.4121 8.71007 14.8151 8.88694 15.2281C8.85341 14.9427 8.76266 14.4542 8.28931 14.021Z" fill="#E3C677"/>
<path fill-rule="evenodd" clip-rule="evenodd" d="M11.4726 15.0012C11.5397 14.9593 11.6724 14.7308 11.7883 14.6738C11.904 14.6151 11.9914 14.6033 12.0955 14.4875C12.1995 14.3665 12.2283 14.2927 12.4564 14.197C12.7755 14.0593 12.556 13.8813 12.556 13.8813C12.5912 13.8468 12.6287 13.8148 12.6685 13.7857C12.7508 13.7236 12.8464 13.648 12.8381 13.5153C12.8264 13.2921 12.7844 12.968 12.6014 12.78C12.7794 12.743 13.1201 12.7179 13.3318 12.6642C13.5769 12.602 13.6894 12.5147 13.6894 12.5147C13.6894 12.5147 13.5484 12.2746 13.7767 12.0329C14.0051 11.7912 14.1914 11.6468 14.3291 11.3764C14.1713 11.3563 13.9307 11.2724 13.3167 11.5057C13.3498 11.5213 13.3818 11.5392 13.4124 11.5594C13.4124 11.5594 13.0347 11.6635 12.897 11.7794C12.6568 11.9825 12.6266 12.1487 12.3664 12.273C12.1062 12.3973 11.8443 12.3636 11.6278 12.4643C11.4113 12.5651 11.3793 12.6507 11.3003 12.6877C11.3171 12.7078 11.297 12.7414 11.3289 12.7699C11.3087 12.7985 11.1912 12.9898 11.072 12.9898C11.0837 13.0352 11.1844 13.0687 11.1844 13.0687C11.1844 13.0687 11.1106 13.1225 10.9226 13.1359C11.0182 13.2355 11.109 13.3441 11.3591 13.5019C11.3389 13.5439 11.2549 13.606 11.2886 13.685C11.3255 13.7639 11.4214 13.8713 11.804 13.9587C11.6092 13.967 11.381 14.0123 11.0735 13.9704C10.7663 13.9334 10.716 13.9116 10.5263 13.9587C10.5464 13.9788 10.6001 13.9788 10.6471 14.0325C10.5968 14.0358 10.2811 13.9955 10.1737 14.1366C10.0612 14.2826 10.0125 14.5228 10.0209 14.6839C9.96216 14.7125 9.90506 14.7628 9.93361 14.867C9.96216 14.9711 10.1116 15.0046 10.2073 15.07C10.3029 15.1405 10.3113 15.1657 10.4021 15.1489C10.4977 15.1288 10.6387 15.0332 10.7211 15.0332C10.8034 15.0332 10.862 15.0953 10.862 15.0953C10.862 15.0953 11.0854 14.9878 11.1072 15.0079C11.1273 15.0281 11.1105 15.1574 11.1323 15.1775C11.1544 15.1927 11.406 15.0433 11.4732 15.0012H11.4726Z" fill="#ECD592"/>
<path fill-rule="evenodd" clip-rule="evenodd" d="M16.3528 8.28254C15.3035 5.57282 12.7096 5.0708 12.7096 5.0708H5.30895L5.3375 7.83089H6.81134V13.9942H5.30884V16.7493H12.5047C14.239 16.7493 15.6291 15.0065 15.6291 15.0065C17.8553 11.8469 16.3527 8.28254 16.3527 8.28254H16.3528ZM12.5433 13.1496C12.5433 13.1496 11.9789 13.964 11.3648 13.964H10.1363L10.1072 7.83764H11.6837C11.6837 7.83764 12.4142 7.99037 12.9245 9.43587C12.9245 9.43587 13.601 11.5055 12.5433 13.1496Z" fill="white" fill-opacity="0.8"/>
</g>
<defs>
<clipPath id="clip0_1_4746">
<rect width="20.7513" height="20.7513" fill="white" transform="translate(0.275391 0.458618)"/>
</clipPath>
</defs>
</svg>
