<svg width="28" height="28" viewBox="0 0 28 28" fill="none" xmlns="http://www.w3.org/2000/svg">
<path fill-rule="evenodd" clip-rule="evenodd" d="M6.99692 2.30085C6.45572 1.19851 5.33462 0.5 4.1066 0.5H1.76126C1.27827 0.5 0.886719 0.891547 0.886719 1.37454C0.886719 1.93455 1.46547 2.3492 1.9311 2.66032C1.96014 2.67972 1.98865 2.70039 2.01656 2.72233L8.96155 8.18162C9.54771 8.64239 9.64936 9.4911 9.18859 10.0773C8.72782 10.6634 7.87911 10.7651 7.29295 10.3043L3.42635 7.26486C2.39653 6.45535 0.886719 7.18896 0.886719 8.49886C0.886719 9.23494 1.39823 9.87215 2.11689 10.0313L6.97839 11.1081C7.70634 11.2694 8.16574 11.9902 8.0045 12.7181C7.84326 13.4461 7.12244 13.9055 6.3945 13.7443L2.52965 12.8882C1.68629 12.7014 0.886719 13.3432 0.886719 14.207C0.886719 15.0776 1.69817 15.7209 2.54579 15.5222L6.45841 14.6051C7.18432 14.435 7.91072 14.8855 8.08086 15.6114C8.25101 16.3373 7.80048 17.0637 7.07457 17.2339L2.12717 18.3935C1.40051 18.5638 0.886719 19.212 0.886719 19.9583C0.886719 21.3088 2.45125 22.0572 3.50264 21.2096L7.50631 17.9823C8.08678 17.5144 8.93667 17.6056 9.40459 18.1861C9.87251 18.7665 9.78127 19.6164 9.2008 20.0843L2.32326 25.6284C2.19567 25.7312 2.05506 25.8071 1.90834 25.8566C1.44837 26.012 0.886719 26.3565 0.886719 26.842C0.886719 27.2054 1.18132 27.5 1.54474 27.5H4.39753C5.75205 27.5 6.98575 26.7208 7.56775 25.4977L9.91173 20.5716C10.2321 19.8984 11.0376 19.6123 11.7108 19.9327C12.3841 20.253 12.6701 21.0585 12.3498 21.7318L10.5576 25.4983C10.1155 26.4274 10.7929 27.5 11.8219 27.5C12.5974 27.5 13.2252 26.8696 13.222 26.0941L13.2047 21.8622C13.2016 21.1167 13.8036 20.5098 14.5492 20.5067C15.2947 20.5037 15.9016 21.1056 15.9047 21.8512L15.922 26.0902C15.9252 26.8697 16.558 27.5 17.3376 27.5C18.3829 27.5 19.0677 26.4059 18.6109 25.4657L16.7319 21.5988C16.4061 20.9282 16.6856 20.1204 17.3562 19.7945C18.0268 19.4687 18.8346 19.7482 19.1604 20.4188L21.7119 25.6699C22.2559 26.7894 23.3913 27.5 24.6359 27.5H27.0427C27.5089 27.5 27.8867 27.1221 27.8867 26.656C27.8867 26.1058 27.3108 25.7011 26.8434 25.4109C26.7995 25.3837 26.7568 25.3537 26.7154 25.3209L19.7928 19.8333C19.2085 19.3701 19.1103 18.521 19.5735 17.9367C20.0367 17.3524 20.8858 17.2543 21.4701 17.7174L25.3361 20.7821C26.3673 21.5995 27.8867 20.8651 27.8867 19.5491C27.8867 18.8137 27.3773 18.1764 26.6599 18.0145L21.7888 16.9146C21.0615 16.7504 20.6051 16.0277 20.7693 15.3005C20.9335 14.5732 21.6562 14.1167 22.3835 14.2809L26.2399 15.1517C27.0839 15.3422 27.8867 14.7005 27.8867 13.8353C27.8867 12.9677 27.08 12.3256 26.2346 12.5201L22.322 13.4203C21.5954 13.5875 20.8708 13.134 20.7036 12.4074C20.5365 11.6808 20.99 10.9562 21.7166 10.7891L26.6445 9.6552C27.3715 9.48793 27.8867 8.84075 27.8867 8.09474C27.8867 6.75237 26.3342 6.00583 25.2857 6.844L21.2875 10.0401C20.7052 10.5056 19.8556 10.4109 19.3901 9.8285C18.9246 9.24613 19.0193 8.39662 19.6016 7.93107L26.5018 2.41521C26.6145 2.32508 26.7373 2.25595 26.8653 2.20729C27.3273 2.03175 27.8867 1.6795 27.8867 1.18533C27.8867 0.806835 27.5799 0.5 27.2014 0.5H24.4143C23.0797 0.5 21.8632 1.26486 21.2849 2.46761L18.8931 7.44168C18.57 8.11362 17.7633 8.3964 17.0914 8.0733C16.4195 7.7502 16.1367 6.94355 16.4598 6.27162L18.2696 2.50783C18.7168 1.57786 18.0391 0.5 17.0072 0.5C16.2336 0.5 15.6064 1.12715 15.6064 1.90079V6.13807C15.6064 6.88366 15.002 7.48807 14.2564 7.48807C13.5108 7.48807 12.9064 6.88366 12.9064 6.13807V1.95329C12.9064 1.15066 12.2558 0.5 11.4531 0.5C10.3774 0.5 9.6745 1.62812 10.1486 2.59377L12.0192 6.40391C12.3478 7.07319 12.0716 7.88211 11.4023 8.21069C10.7331 8.53928 9.92414 8.2631 9.59555 7.59382L6.99692 2.30085Z" fill="white"/>
</svg>
