<svg width="22" height="22" viewBox="0 0 22 22" fill="none" xmlns="http://www.w3.org/2000/svg">
<path d="M9.97429 18.2738L14.1345 17.3954C15.663 17.0726 15.663 17.0726 16.3319 15.425L17.7873 10.9753C18.007 10.3038 17.8015 9.33047 17.3306 8.81232L14.2004 5.33095C12.9225 4.09447 12.9225 4.09447 11.4012 4.41572L7.23377 5.29573C5.71245 5.61698 5.71245 5.61698 5.04359 7.26453L3.58817 11.7142C3.36694 12.3785 3.57248 13.3519 4.04493 13.8772L7.17511 17.3586C8.45297 18.5951 8.45297 18.5951 9.97429 18.2738Z" stroke="white" stroke-width="1.26327" stroke-linecap="round" stroke-linejoin="round"/>
<path d="M12.8507 10.888C12.5985 9.69343 11.4256 8.92951 10.231 9.18176C9.03636 9.43402 8.27244 10.6069 8.52469 11.8015C8.77695 12.9961 9.94986 13.7601 11.1445 13.5078C12.3391 13.2555 13.103 12.0826 12.8507 10.888Z" stroke="white" stroke-width="1.26327" stroke-linecap="round" stroke-linejoin="round"/>
</svg>
