<svg width="15" height="16" viewBox="0 0 15 16" fill="none" xmlns="http://www.w3.org/2000/svg">
<path d="M3.12891 10.7065L2.16016 6.1188C3.29216 6.20836 5.64212 6.13807 8.43026 5.74822C9.93097 5.53839 10.6813 5.43347 11.1829 5.78787C11.6846 6.14227 11.8346 6.85228 12.1344 8.27237L12.3497 9.29188C12.6585 10.7542 12.8129 11.4854 12.411 12.0457C12.009 12.606 11.3163 12.683 9.93076 12.837C9.26877 12.9106 8.56456 12.9685 7.84376 12.9983" stroke="#3AFF09" stroke-width="1.09578" stroke-linecap="round" stroke-linejoin="round"/>
<path d="M9.77873 5.56749C9.81779 4.80653 9.7141 3.45946 9.06114 2.9176C8.64729 2.57415 8.16997 2.71634 7.70266 2.85876C5.24611 3.60745 3.57235 4.428 2.64802 4.94054C2.25056 5.16093 2.05799 5.63517 2.15583 6.09853" stroke="#3AFF09" stroke-width="1.09578" stroke-linejoin="round"/>
<path d="M9.1965 9.39233C9.28506 9.81174 9.69688 10.08 10.1163 9.9914C10.5357 9.90284 10.8039 9.49101 10.7154 9.0716C10.6268 8.6522 10.215 8.38398 9.79556 8.47254C9.37615 8.5611 9.10793 8.97293 9.1965 9.39233Z" stroke="#3AFF09" stroke-width="1.09578"/>
<path d="M3.54971 12.7001C3.54971 12.7001 4.056 12.5932 4.7761 13.4989C4.7761 13.4989 5.84976 10.6278 7.17236 9.81968" stroke="#3AFF09" stroke-width="1.09578" stroke-linecap="round" stroke-linejoin="round"/>
</svg>
